<svg width="440" height="259" viewBox="0 0 440 259" fill="none" xmlns="http://www.w3.org/2000/svg">
<rect x="101.002" y="8" width="228" height="57" fill="#FFCC00"/>
<rect x="0.0308838" y="55.9219" width="429.971" height="170.03" fill="#FFCC00"/>
<rect x="200.002" y="22" width="2" height="1" fill="#D9D9D9"/>
<ellipse cx="366.002" cy="232" rx="33" ry="27" fill="#8E8E93"/>
<path d="M50.7207 121.812C49.4707 121.104 48.5957 120.417 48.0957 119.75C47.5957 119.083 47.3457 118.375 47.3457 117.625C47.3457 116.875 47.5332 116.042 47.9082 115.125C48.2832 114.208 48.7207 113.146 49.2207 111.938C49.3457 111.688 49.5957 111.188 49.9707 110.438C50.3457 109.646 50.7624 108.729 51.2207 107.688C51.7207 106.646 52.2416 105.562 52.7832 104.438C53.3666 103.271 53.8874 102.167 54.3457 101.125C54.8457 100.083 55.2624 99.1875 55.5957 98.4375C55.9707 97.6458 56.2207 97.125 56.3457 96.875C56.8874 95.7083 57.1166 94.6875 57.0332 93.8125C56.9916 92.8958 56.8874 92.0417 56.7207 91.25C56.5957 90.4583 56.5332 89.6875 56.5332 88.9375C56.5749 88.1875 56.9707 87.3333 57.7207 86.375C57.8457 86.25 58.1166 85.9583 58.5332 85.5C58.9499 85.0417 59.3874 84.5625 59.8457 84.0625C60.3457 83.5208 60.8041 83.0417 61.2207 82.625C61.6374 82.1667 61.8874 81.875 61.9707 81.75C62.1791 81.5 62.7624 81.0833 63.7207 80.5C64.7207 79.9167 65.9291 79.2917 67.3457 78.625C68.7624 77.9167 70.3249 77.2083 72.0332 76.5C73.7832 75.75 75.5124 75.1042 77.2207 74.5625C78.9291 73.9792 80.5749 73.5417 82.1582 73.25C83.7416 72.9583 85.0957 72.875 86.2207 73C87.3457 73.125 88.1582 73.5208 88.6582 74.1875C89.1999 74.8542 89.2832 75.875 88.9082 77.25C88.2832 79.5 87.2624 81.4792 85.8457 83.1875C84.4707 84.8958 83.0124 86.4167 81.4707 87.75C79.9291 89.0833 78.4499 90.2708 77.0332 91.3125C75.6582 92.3542 74.6374 93.3333 73.9707 94.25C78.9707 94.4167 82.6166 95.0208 84.9082 96.0625C87.2416 97.1042 88.5541 98.4167 88.8457 100C89.1791 101.583 88.6791 103.354 87.3457 105.312C86.0124 107.229 84.1791 109.146 81.8457 111.062C79.5124 112.938 76.8666 114.729 73.9082 116.438C70.9499 118.104 67.9916 119.479 65.0332 120.562C62.1166 121.646 59.3666 122.333 56.7832 122.625C54.2416 122.917 52.2207 122.646 50.7207 121.812ZM55.6582 106.688C54.8666 107.646 54.1374 108.708 53.4707 109.875C52.8041 111 52.2832 112.125 51.9082 113.25C51.5749 114.333 51.4291 115.375 51.4707 116.375C51.5124 117.333 51.8249 118.125 52.4082 118.75C52.9916 119.333 53.8666 119.688 55.0332 119.812C56.2416 119.938 57.8457 119.708 59.8457 119.125C64.2624 118.125 68.0957 116.854 71.3457 115.312C74.6374 113.771 77.3457 112.167 79.4707 110.5C81.6374 108.792 83.2207 107.104 84.2207 105.438C85.2624 103.771 85.7416 102.312 85.6582 101.062C85.6166 99.7708 85.0124 98.7917 83.8457 98.125C82.7207 97.4583 81.0749 97.2708 78.9082 97.5625C76.7416 97.8125 74.0541 98.6667 70.8457 100.125C67.6791 101.542 64.0124 103.729 59.8457 106.688C59.3874 107.062 58.9707 107.25 58.5957 107.25C58.2207 107.208 57.8666 107.125 57.5332 107C57.1999 106.833 56.8874 106.688 56.5957 106.562C56.3041 106.438 55.9916 106.479 55.6582 106.688ZM57.0332 101.438C57.0332 101.562 57.0124 101.75 56.9707 102C56.9707 102.25 56.9707 102.521 56.9707 102.812C56.9707 103.062 56.9707 103.312 56.9707 103.562C57.0124 103.812 57.0332 104 57.0332 104.125C57.3666 104.042 58.0541 103.646 59.0957 102.938C60.1374 102.229 61.3874 101.312 62.8457 100.188C64.3457 99.0625 65.9707 97.7917 67.7207 96.375C69.4707 94.9167 71.2207 93.4167 72.9707 91.875C74.7624 90.2917 76.4499 88.7292 78.0332 87.1875C79.6582 85.6042 81.0541 84.125 82.2207 82.75C83.3874 81.375 84.2624 80.1667 84.8457 79.125C85.4707 78.0417 85.6582 77.2083 85.4082 76.625C83.5749 76.375 81.6374 76.5 79.5957 77C77.5957 77.4583 75.6166 78.1458 73.6582 79.0625C71.7416 79.9792 69.9499 81.0417 68.2832 82.25C66.6166 83.4167 65.2207 84.5625 64.0957 85.6875C63.8457 86.2292 63.4291 87.1875 62.8457 88.5625C62.2624 89.9375 61.6166 91.3958 60.9082 92.9375C60.2416 94.4792 59.5957 95.9375 58.9707 97.3125C58.3874 98.6458 57.9707 99.5833 57.7207 100.125C57.7207 100.208 57.6166 100.438 57.4082 100.812C57.1999 101.146 57.0749 101.354 57.0332 101.438ZM92.0957 121.312C91.7624 120.354 91.9499 118.875 92.6582 116.875C93.3666 114.833 94.3249 112.542 95.5332 110C96.7832 107.417 98.1582 104.75 99.6582 102C101.2 99.25 102.596 96.6875 103.846 94.3125C105.137 91.8958 106.179 89.8542 106.971 88.1875C107.804 86.4792 108.137 85.3958 107.971 84.9375C107.471 84.7708 106.929 84.8333 106.346 85.125C105.804 85.4167 105.242 85.7083 104.658 86C104.117 86.2917 103.575 86.4583 103.033 86.5C102.492 86.5417 102.012 86.25 101.596 85.625C101.387 85.3333 101.304 85.0625 101.346 84.8125C101.429 84.5208 101.554 84.25 101.721 84C101.929 83.75 102.137 83.5417 102.346 83.375C102.596 83.1667 102.804 83 102.971 82.875C107.721 79.75 112.221 77.3125 116.471 75.5625C120.762 73.8125 124.596 72.625 127.971 72C131.387 71.375 134.242 71.25 136.533 71.625C138.867 72 140.471 72.7708 141.346 73.9375C142.221 75.0625 142.262 76.5417 141.471 78.375C140.721 80.1667 138.95 82.1875 136.158 84.4375C133.408 86.6875 129.512 89.1042 124.471 91.6875C119.471 94.2292 113.179 96.8333 105.596 99.5C105.179 100.167 105.283 100.917 105.908 101.75C106.575 102.583 107.533 103.5 108.783 104.5C110.075 105.458 111.575 106.458 113.283 107.5C115.033 108.542 116.783 109.604 118.533 110.688C120.325 111.729 122.012 112.771 123.596 113.812C125.221 114.812 126.554 115.771 127.596 116.688C128.637 117.604 129.304 118.458 129.596 119.25C129.929 120.042 129.658 120.729 128.783 121.312C128.742 121.354 128.471 121.208 127.971 120.875C127.512 120.5 126.929 120.042 126.221 119.5C125.512 118.917 124.742 118.292 123.908 117.625C123.117 116.958 122.346 116.333 121.596 115.75C120.887 115.167 120.262 114.667 119.721 114.25C119.221 113.833 118.929 113.583 118.846 113.5C116.346 111.917 113.846 110.354 111.346 108.812C108.846 107.271 106.408 105.542 104.033 103.625C103.242 103.375 102.45 103.792 101.658 104.875C100.867 105.958 100.096 107.354 99.3457 109.062C98.5957 110.729 97.8457 112.521 97.0957 114.438C96.3874 116.312 95.7207 117.958 95.0957 119.375C94.4707 120.75 93.9082 121.688 93.4082 122.188C92.9082 122.729 92.4707 122.438 92.0957 121.312ZM106.971 95.25C107.887 95.5417 109.117 95.5208 110.658 95.1875C112.242 94.8542 113.971 94.2917 115.846 93.5C117.762 92.7083 119.742 91.75 121.783 90.625C123.867 89.5 125.846 88.3333 127.721 87.125C129.596 85.875 131.304 84.625 132.846 83.375C134.429 82.125 135.658 80.9792 136.533 79.9375C137.408 78.8542 137.867 77.9375 137.908 77.1875C137.992 76.4375 137.492 75.9583 136.408 75.75C131.908 75.6667 128.075 75.8958 124.908 76.4375C121.742 76.9375 119.033 77.8958 116.783 79.3125C114.533 80.7292 112.637 82.6667 111.096 85.125C109.554 87.5833 108.179 90.7083 106.971 94.5V95.25ZM139.971 121.312C137.887 120.438 136.512 119.229 135.846 117.688C135.179 116.104 134.95 114.417 135.158 112.625C135.367 110.792 135.867 108.958 136.658 107.125C137.492 105.292 138.346 103.667 139.221 102.25C139.512 101.75 140.054 100.896 140.846 99.6875C141.637 98.4792 142.471 97.2083 143.346 95.875C144.262 94.5 145.117 93.2292 145.908 92.0625C146.742 90.8542 147.325 90.0208 147.658 89.5625C148.158 86.3542 149.158 83.8125 150.658 81.9375C152.158 80.0208 153.846 78.7083 155.721 78C157.637 77.2917 159.596 77.1458 161.596 77.5625C163.596 77.9375 165.346 78.8333 166.846 80.25C168.346 81.625 169.429 83.4792 170.096 85.8125C170.762 88.1458 170.7 90.875 169.908 94C169.158 97.125 167.533 100.625 165.033 104.5C162.533 108.375 158.867 112.562 154.033 117.062C153.2 117.854 152.2 118.625 151.033 119.375C149.908 120.083 148.7 120.667 147.408 121.125C146.158 121.583 144.887 121.854 143.596 121.938C142.304 122.021 141.096 121.812 139.971 121.312ZM137.783 116.375C138.2 118.25 138.992 119.417 140.158 119.875C141.325 120.333 142.7 120.25 144.283 119.625C145.867 119 147.596 117.938 149.471 116.438C151.346 114.938 153.221 113.188 155.096 111.188C156.971 109.146 158.762 106.938 160.471 104.562C162.179 102.188 163.658 99.8333 164.908 97.5C166.2 95.1667 167.179 92.9375 167.846 90.8125C168.512 88.6875 168.721 86.8542 168.471 85.3125C168.262 83.7292 167.512 82.5417 166.221 81.75C164.971 80.9583 163.033 80.7292 160.408 81.0625C159.45 81.8958 158.179 83.125 156.596 84.75C155.012 86.3333 153.325 88.1458 151.533 90.1875C149.742 92.2292 147.95 94.4375 146.158 96.8125C144.367 99.1458 142.783 101.479 141.408 103.812C140.033 106.146 138.992 108.396 138.283 110.562C137.575 112.729 137.408 114.667 137.783 116.375ZM172.908 121.312C170.825 120.438 169.45 119.229 168.783 117.688C168.117 116.104 167.887 114.417 168.096 112.625C168.304 110.792 168.804 108.958 169.596 107.125C170.429 105.292 171.283 103.667 172.158 102.25C172.45 101.75 172.992 100.896 173.783 99.6875C174.575 98.4792 175.408 97.2083 176.283 95.875C177.2 94.5 178.054 93.2292 178.846 92.0625C179.679 90.8542 180.262 90.0208 180.596 89.5625C181.096 86.3542 182.096 83.8125 183.596 81.9375C185.096 80.0208 186.783 78.7083 188.658 78C190.575 77.2917 192.533 77.1458 194.533 77.5625C196.533 77.9375 198.283 78.8333 199.783 80.25C201.283 81.625 202.367 83.4792 203.033 85.8125C203.7 88.1458 203.637 90.875 202.846 94C202.096 97.125 200.471 100.625 197.971 104.5C195.471 108.375 191.804 112.562 186.971 117.062C186.137 117.854 185.137 118.625 183.971 119.375C182.846 120.083 181.637 120.667 180.346 121.125C179.096 121.583 177.825 121.854 176.533 121.938C175.242 122.021 174.033 121.812 172.908 121.312ZM170.721 116.375C171.137 118.25 171.929 119.417 173.096 119.875C174.262 120.333 175.637 120.25 177.221 119.625C178.804 119 180.533 117.938 182.408 116.438C184.283 114.938 186.158 113.188 188.033 111.188C189.908 109.146 191.7 106.938 193.408 104.562C195.117 102.188 196.596 99.8333 197.846 97.5C199.137 95.1667 200.117 92.9375 200.783 90.8125C201.45 88.6875 201.658 86.8542 201.408 85.3125C201.2 83.7292 200.45 82.5417 199.158 81.75C197.908 80.9583 195.971 80.7292 193.346 81.0625C192.387 81.8958 191.117 83.125 189.533 84.75C187.95 86.3333 186.262 88.1458 184.471 90.1875C182.679 92.2292 180.887 94.4375 179.096 96.8125C177.304 99.1458 175.721 101.479 174.346 103.812C172.971 106.146 171.929 108.396 171.221 110.562C170.512 112.729 170.346 114.667 170.721 116.375ZM244.283 127.75C242.95 125.625 241.617 123.688 240.283 121.938C238.992 120.188 237.637 118.5 236.221 116.875C234.804 115.208 233.304 113.542 231.721 111.875C230.179 110.208 228.492 108.438 226.658 106.562C224.033 103.812 221.846 101.771 220.096 100.438C218.387 99.1042 216.95 98.3333 215.783 98.125C214.658 97.9167 213.721 98.25 212.971 99.125C212.221 99.9583 211.492 101.208 210.783 102.875C210.075 104.5 209.325 106.479 208.533 108.812C207.742 111.146 206.721 113.688 205.471 116.438C205.054 117.312 204.575 118.333 204.033 119.5C203.533 120.625 202.825 121.5 201.908 122.125C201.2 122.583 200.887 122.375 200.971 121.5C201.054 120.583 201.387 119.292 201.971 117.625C202.554 115.958 203.283 114.083 204.158 112C205.075 109.875 205.971 107.833 206.846 105.875C207.721 103.917 208.492 102.229 209.158 100.812C209.825 99.3542 210.242 98.4583 210.408 98.125C211.408 95.75 212.429 93.5833 213.471 91.625C214.512 89.625 215.533 87.6667 216.533 85.75C217.575 83.8333 218.575 81.875 219.533 79.875C220.533 77.875 221.45 75.6667 222.283 73.25C222.658 73 222.992 72.9375 223.283 73.0625C223.575 73.1458 223.825 73.3125 224.033 73.5625C224.242 73.8125 224.367 74.125 224.408 74.5C224.492 74.8333 224.492 75.125 224.408 75.375C224.158 75.875 223.762 76.6667 223.221 77.75C222.721 78.7917 222.179 79.8958 221.596 81.0625C221.054 82.1875 220.533 83.2917 220.033 84.375C219.533 85.4167 219.158 86.2083 218.908 86.75C218.825 86.9583 218.658 87.3958 218.408 88.0625C218.158 88.6875 218.075 89.2083 218.158 89.625C219.367 89.875 220.867 89.7708 222.658 89.3125C224.492 88.8542 226.45 88.1875 228.533 87.3125C230.658 86.4375 232.846 85.4375 235.096 84.3125C237.387 83.1458 239.554 82 241.596 80.875C243.679 79.75 245.554 78.7083 247.221 77.75C248.929 76.75 250.304 76 251.346 75.5C252.346 75 252.867 74.9167 252.908 75.25C252.95 75.5833 252.721 76.0833 252.221 76.75C251.762 77.4167 251.158 78.125 250.408 78.875C249.7 79.5833 249.075 80.0833 248.533 80.375C248.117 80.625 247.492 80.9792 246.658 81.4375C245.825 81.8542 244.95 82.2917 244.033 82.75C243.117 83.1667 242.283 83.5625 241.533 83.9375C240.783 84.3125 240.283 84.5417 240.033 84.625C238.908 85.125 237.492 85.6875 235.783 86.3125C234.075 86.9375 232.283 87.6042 230.408 88.3125C228.575 89.0208 226.742 89.7917 224.908 90.625C223.117 91.4167 221.575 92.25 220.283 93.125C219.95 93.375 219.658 93.625 219.408 93.875C219.2 94.0833 219.012 94.3125 218.846 94.5625C218.721 94.8125 218.742 95.0417 218.908 95.25C219.533 95.625 220.492 96.375 221.783 97.5C223.075 98.625 224.533 99.9583 226.158 101.5C227.783 103.042 229.492 104.75 231.283 106.625C233.117 108.5 234.887 110.396 236.596 112.312C238.304 114.229 239.867 116.104 241.283 117.938C242.7 119.771 243.825 121.417 244.658 122.875C245.533 124.375 246.033 125.625 246.158 126.625C246.283 127.625 245.887 128.229 244.971 128.438C244.887 128.396 244.762 128.292 244.596 128.125C244.471 127.958 244.367 127.833 244.283 127.75ZM251.283 121.312C250.617 120.854 250.346 120.167 250.471 119.25C250.596 118.333 250.887 117.396 251.346 116.438C251.804 115.354 252.471 114.167 253.346 112.875C254.679 110.333 255.867 108.062 256.908 106.062C257.992 104.021 258.992 102.104 259.908 100.312C260.825 98.5208 261.7 96.7917 262.533 95.125C263.367 93.4583 264.2 91.7083 265.033 89.875C265.908 88.0417 266.804 86.0833 267.721 84C268.637 81.9167 269.658 79.5417 270.783 76.875C270.867 76.7083 270.992 76.4792 271.158 76.1875C271.367 75.8542 271.596 75.6042 271.846 75.4375C272.137 75.2292 272.429 75.1667 272.721 75.25C273.012 75.2917 273.304 75.5833 273.596 76.125C274.012 76.9583 274.033 78.1042 273.658 79.5625C273.325 81.0208 272.721 82.7083 271.846 84.625C270.971 86.5 269.929 88.5417 268.721 90.75C267.512 92.9167 266.242 95.125 264.908 97.375C263.575 99.625 262.262 101.854 260.971 104.062C259.679 106.271 258.533 108.333 257.533 110.25C256.575 112.167 255.825 113.917 255.283 115.5C254.783 117.042 254.617 118.271 254.783 119.188C257.742 119.479 260.721 119.458 263.721 119.125C266.721 118.792 269.721 118.396 272.721 117.938C275.721 117.438 278.721 117 281.721 116.625C284.762 116.25 287.783 116.167 290.783 116.375C291.325 116.292 291.783 116.479 292.158 116.938C292.533 117.396 292.554 117.896 292.221 118.438C292.137 118.438 291.95 118.438 291.658 118.438C291.408 118.396 291.137 118.375 290.846 118.375C290.554 118.375 290.262 118.396 289.971 118.438C289.721 118.438 289.533 118.438 289.408 118.438C287.075 118.646 284.346 119.021 281.221 119.562C278.096 120.062 274.867 120.542 271.533 121C268.2 121.458 264.867 121.812 261.533 122.062C258.242 122.312 255.262 122.292 252.596 122C252.554 122 252.346 121.917 251.971 121.75C251.637 121.542 251.408 121.396 251.283 121.312ZM296.783 130C296.283 128.75 296.221 127.438 296.596 126.062C296.971 124.688 297.575 123.25 298.408 121.75C299.242 120.208 300.221 118.625 301.346 117C302.471 115.375 303.533 113.708 304.533 112C305.533 110.25 306.367 108.458 307.033 106.625C307.7 104.792 308.033 102.938 308.033 101.062C307.867 100.688 307.492 100.062 306.908 99.1875C306.325 98.2708 305.637 97.2292 304.846 96.0625C304.054 94.8542 303.2 93.5625 302.283 92.1875C301.367 90.8125 300.471 89.4792 299.596 88.1875C298.762 86.8542 297.992 85.6042 297.283 84.4375C296.617 83.2292 296.117 82.2292 295.783 81.4375C295.45 80.6458 295.346 80.1042 295.471 79.8125C295.596 79.4792 296.033 79.5 296.783 79.875C297.367 80.4167 298.096 81.2917 298.971 82.5C299.846 83.6667 300.742 85 301.658 86.5C302.617 87.9583 303.575 89.4792 304.533 91.0625C305.533 92.6042 306.45 94 307.283 95.25C308.117 96.4583 308.846 97.4375 309.471 98.1875C310.096 98.8958 310.554 99.1458 310.846 98.9375C311.262 98.1042 311.867 96.7917 312.658 95C313.492 93.1667 314.387 91.1875 315.346 89.0625C316.304 86.8958 317.283 84.75 318.283 82.625C319.325 80.4583 320.283 78.625 321.158 77.125C322.075 75.625 322.867 74.625 323.533 74.125C324.242 73.5833 324.721 73.8542 324.971 74.9375C325.137 75.5625 324.95 76.6667 324.408 78.25C323.867 79.7917 323.096 81.6667 322.096 83.875C321.096 86.0417 319.908 88.4792 318.533 91.1875C317.2 93.8542 315.783 96.625 314.283 99.5C312.825 102.375 311.346 105.271 309.846 108.188C308.387 111.062 307.012 113.833 305.721 116.5C304.429 119.125 303.304 121.542 302.346 123.75C301.387 125.958 300.7 127.812 300.283 129.312C300.158 129.729 299.95 130.125 299.658 130.5C299.408 130.917 299.117 131.208 298.783 131.375C298.45 131.542 298.096 131.521 297.721 131.312C297.387 131.146 297.075 130.708 296.783 130ZM319.096 120.562C319.387 119.271 319.887 117.833 320.596 116.25C321.346 114.667 322.158 113.104 323.033 111.562C323.908 110.021 324.762 108.562 325.596 107.188C326.429 105.771 327.096 104.583 327.596 103.625C327.846 103.125 328.221 102.375 328.721 101.375C329.262 100.333 329.846 99.1667 330.471 97.875C331.137 96.5417 331.825 95.1667 332.533 93.75C333.283 92.3333 333.971 90.9792 334.596 89.6875C335.262 88.3542 335.846 87.1875 336.346 86.1875C336.887 85.1458 337.283 84.375 337.533 83.875C338.825 82.5417 339.887 82.1667 340.721 82.75C341.596 83.3333 342.367 84.5208 343.033 86.3125C343.7 88.1042 344.304 90.3125 344.846 92.9375C345.387 95.5625 345.971 98.25 346.596 101C347.221 103.75 347.929 106.375 348.721 108.875C349.512 111.375 350.471 113.396 351.596 114.938C352.137 115.188 352.783 114.917 353.533 114.125C354.325 113.333 355.179 112.188 356.096 110.688C357.012 109.146 357.971 107.354 358.971 105.312C359.971 103.271 360.971 101.125 361.971 98.875C363.012 96.625 364.012 94.3542 364.971 92.0625C365.929 89.7708 366.825 87.6667 367.658 85.75C368.492 83.7917 369.2 82.0833 369.783 80.625C370.408 79.1667 370.887 78.1458 371.221 77.5625C371.512 77.0208 371.804 76.7708 372.096 76.8125C372.429 76.8125 372.7 76.9792 372.908 77.3125C373.117 77.6042 373.262 78 373.346 78.5C373.471 78.9583 373.471 79.375 373.346 79.75C372.012 83.375 370.762 86.6458 369.596 89.5625C368.429 92.4792 367.221 95.2917 365.971 98C364.762 100.708 363.45 103.479 362.033 106.312C360.658 109.104 359.075 112.208 357.283 115.625C355.95 117.25 354.658 118.167 353.408 118.375C352.158 118.542 350.867 117.625 349.533 115.625C348.158 113.208 347.075 110.917 346.283 108.75C345.492 106.583 344.804 104.458 344.221 102.375C343.679 100.25 343.179 98.1042 342.721 95.9375C342.262 93.7292 341.7 91.3542 341.033 88.8125C340.658 88.5625 340.033 89 339.158 90.125C338.283 91.25 337.262 92.75 336.096 94.625C334.971 96.5 333.783 98.6042 332.533 100.938C331.283 103.271 330.096 105.521 328.971 107.688C327.846 109.854 326.846 111.792 325.971 113.5C325.096 115.208 324.471 116.396 324.096 117.062C323.887 117.438 323.617 117.896 323.283 118.438C322.992 118.979 322.679 119.521 322.346 120.062C322.054 120.604 321.783 121.062 321.533 121.438C321.325 121.812 321.221 122 321.221 122H319.096C319.054 121.917 319.033 121.688 319.033 121.312C319.033 120.938 319.054 120.688 319.096 120.562ZM145.721 206.812C144.471 206.104 143.596 205.417 143.096 204.75C142.596 204.083 142.346 203.375 142.346 202.625C142.346 201.875 142.533 201.042 142.908 200.125C143.283 199.208 143.721 198.146 144.221 196.938C144.346 196.688 144.596 196.188 144.971 195.438C145.346 194.646 145.762 193.729 146.221 192.688C146.721 191.646 147.242 190.562 147.783 189.438C148.367 188.271 148.887 187.167 149.346 186.125C149.846 185.083 150.262 184.188 150.596 183.438C150.971 182.646 151.221 182.125 151.346 181.875C151.887 180.708 152.117 179.688 152.033 178.812C151.992 177.896 151.887 177.042 151.721 176.25C151.596 175.458 151.533 174.688 151.533 173.938C151.575 173.188 151.971 172.333 152.721 171.375C152.846 171.25 153.117 170.958 153.533 170.5C153.95 170.042 154.387 169.562 154.846 169.062C155.346 168.521 155.804 168.042 156.221 167.625C156.637 167.167 156.887 166.875 156.971 166.75C157.179 166.5 157.762 166.083 158.721 165.5C159.721 164.917 160.929 164.292 162.346 163.625C163.762 162.917 165.325 162.208 167.033 161.5C168.783 160.75 170.512 160.104 172.221 159.562C173.929 158.979 175.575 158.542 177.158 158.25C178.742 157.958 180.096 157.875 181.221 158C182.346 158.125 183.158 158.521 183.658 159.188C184.2 159.854 184.283 160.875 183.908 162.25C183.283 164.5 182.262 166.479 180.846 168.188C179.471 169.896 178.012 171.417 176.471 172.75C174.929 174.083 173.45 175.271 172.033 176.312C170.658 177.354 169.637 178.333 168.971 179.25C173.971 179.417 177.617 180.021 179.908 181.062C182.242 182.104 183.554 183.417 183.846 185C184.179 186.583 183.679 188.354 182.346 190.312C181.012 192.229 179.179 194.146 176.846 196.062C174.512 197.938 171.867 199.729 168.908 201.438C165.95 203.104 162.992 204.479 160.033 205.562C157.117 206.646 154.367 207.333 151.783 207.625C149.242 207.917 147.221 207.646 145.721 206.812ZM150.658 191.688C149.867 192.646 149.137 193.708 148.471 194.875C147.804 196 147.283 197.125 146.908 198.25C146.575 199.333 146.429 200.375 146.471 201.375C146.512 202.333 146.825 203.125 147.408 203.75C147.992 204.333 148.867 204.688 150.033 204.812C151.242 204.938 152.846 204.708 154.846 204.125C159.262 203.125 163.096 201.854 166.346 200.312C169.637 198.771 172.346 197.167 174.471 195.5C176.637 193.792 178.221 192.104 179.221 190.438C180.262 188.771 180.742 187.312 180.658 186.062C180.617 184.771 180.012 183.792 178.846 183.125C177.721 182.458 176.075 182.271 173.908 182.562C171.742 182.812 169.054 183.667 165.846 185.125C162.679 186.542 159.012 188.729 154.846 191.688C154.387 192.062 153.971 192.25 153.596 192.25C153.221 192.208 152.867 192.125 152.533 192C152.2 191.833 151.887 191.688 151.596 191.562C151.304 191.438 150.992 191.479 150.658 191.688ZM152.033 186.438C152.033 186.562 152.012 186.75 151.971 187C151.971 187.25 151.971 187.521 151.971 187.812C151.971 188.062 151.971 188.312 151.971 188.562C152.012 188.812 152.033 189 152.033 189.125C152.367 189.042 153.054 188.646 154.096 187.938C155.137 187.229 156.387 186.312 157.846 185.188C159.346 184.062 160.971 182.792 162.721 181.375C164.471 179.917 166.221 178.417 167.971 176.875C169.762 175.292 171.45 173.729 173.033 172.188C174.658 170.604 176.054 169.125 177.221 167.75C178.387 166.375 179.262 165.167 179.846 164.125C180.471 163.042 180.658 162.208 180.408 161.625C178.575 161.375 176.637 161.5 174.596 162C172.596 162.458 170.617 163.146 168.658 164.062C166.742 164.979 164.95 166.042 163.283 167.25C161.617 168.417 160.221 169.562 159.096 170.688C158.846 171.229 158.429 172.188 157.846 173.562C157.262 174.938 156.617 176.396 155.908 177.938C155.242 179.479 154.596 180.938 153.971 182.312C153.387 183.646 152.971 184.583 152.721 185.125C152.721 185.208 152.617 185.438 152.408 185.812C152.2 186.146 152.075 186.354 152.033 186.438ZM181.158 218.562C181.033 218.479 180.846 218.271 180.596 217.938C180.304 217.646 180.075 217.333 179.908 217C179.742 216.667 179.679 216.375 179.721 216.125C179.721 215.875 179.95 215.75 180.408 215.75C181.283 216.958 182.512 217.417 184.096 217.125C185.679 216.833 187.387 216.104 189.221 214.938C191.054 213.812 192.908 212.375 194.783 210.625C196.7 208.917 198.408 207.208 199.908 205.5C201.45 203.792 202.7 202.25 203.658 200.875C204.658 199.5 205.158 198.583 205.158 198.125C205.158 198 204.992 197.812 204.658 197.562C204.325 197.271 203.929 196.979 203.471 196.688C203.054 196.396 202.658 196.125 202.283 195.875C201.908 195.625 201.679 195.438 201.596 195.312C201.721 194.896 202.117 194.583 202.783 194.375C203.45 194.125 204.2 193.917 205.033 193.75C205.867 193.542 206.679 193.354 207.471 193.188C208.304 192.979 208.929 192.729 209.346 192.438C211.554 189.229 213.471 186.354 215.096 183.812C216.762 181.229 218.325 178.708 219.783 176.25C221.283 173.75 222.804 171.188 224.346 168.562C225.887 165.938 227.658 162.979 229.658 159.688C230.2 158.771 230.637 158.458 230.971 158.75C231.304 159.042 231.554 159.75 231.721 160.875C231.887 162 231.992 163.438 232.033 165.188C232.075 166.896 232.075 168.75 232.033 170.75C231.992 172.75 231.908 174.792 231.783 176.875C231.7 178.958 231.596 180.875 231.471 182.625C231.387 184.375 231.304 185.896 231.221 187.188C231.179 188.438 231.179 189.25 231.221 189.625C231.387 191.75 231.492 193.604 231.533 195.188C231.617 196.729 231.825 198.167 232.158 199.5C232.492 200.792 233.054 202.062 233.846 203.312C234.679 204.521 235.929 205.854 237.596 207.312C236.221 207.771 235.075 207.729 234.158 207.188C233.283 206.688 232.554 205.917 231.971 204.875C231.429 203.792 230.971 202.562 230.596 201.188C230.262 199.771 229.929 198.417 229.596 197.125C229.304 195.792 228.95 194.646 228.533 193.688C228.158 192.688 227.637 192.042 226.971 191.75C226.929 191.75 226.804 191.75 226.596 191.75C226.429 191.708 226.221 191.688 225.971 191.688C225.762 191.688 225.554 191.708 225.346 191.75C225.137 191.75 224.992 191.75 224.908 191.75C224.533 191.833 223.825 192 222.783 192.25C221.783 192.5 220.679 192.771 219.471 193.062C218.262 193.354 217.096 193.646 215.971 193.938C214.887 194.229 214.096 194.438 213.596 194.562C212.554 194.854 211.45 195.521 210.283 196.562C209.158 197.604 207.95 198.875 206.658 200.375C205.408 201.833 204.096 203.438 202.721 205.188C201.387 206.938 200.012 208.646 198.596 210.312C197.179 211.979 195.742 213.521 194.283 214.938C192.825 216.354 191.367 217.5 189.908 218.375C188.45 219.25 186.992 219.729 185.533 219.812C184.033 219.938 182.575 219.521 181.158 218.562ZM215.033 191.062C215.117 191.104 215.325 191.125 215.658 191.125C216.033 191.125 216.283 191.104 216.408 191.062C217.158 190.938 218.096 190.792 219.221 190.625C220.346 190.458 221.471 190.271 222.596 190.062C223.721 189.812 224.762 189.542 225.721 189.25C226.679 188.917 227.346 188.562 227.721 188.188C227.721 188.188 227.783 187.75 227.908 186.875C228.033 186 228.179 184.896 228.346 183.562C228.512 182.188 228.679 180.688 228.846 179.062C229.054 177.396 229.242 175.771 229.408 174.188C229.575 172.604 229.7 171.146 229.783 169.812C229.908 168.438 229.992 167.375 230.033 166.625C229.575 166.417 228.971 166.958 228.221 168.25C227.471 169.5 226.492 171.229 225.283 173.438C224.117 175.646 222.679 178.229 220.971 181.188C219.304 184.104 217.325 187.146 215.033 190.312V191.062ZM243.533 206.812C242.283 206.104 241.408 205.417 240.908 204.75C240.408 204.083 240.158 203.375 240.158 202.625C240.158 201.875 240.346 201.042 240.721 200.125C241.096 199.208 241.533 198.146 242.033 196.938C242.158 196.688 242.408 196.188 242.783 195.438C243.158 194.646 243.575 193.729 244.033 192.688C244.533 191.646 245.054 190.562 245.596 189.438C246.179 188.271 246.7 187.167 247.158 186.125C247.658 185.083 248.075 184.188 248.408 183.438C248.783 182.646 249.033 182.125 249.158 181.875C249.7 180.708 249.929 179.688 249.846 178.812C249.804 177.896 249.7 177.042 249.533 176.25C249.408 175.458 249.346 174.688 249.346 173.938C249.387 173.188 249.783 172.333 250.533 171.375C250.658 171.25 250.929 170.958 251.346 170.5C251.762 170.042 252.2 169.562 252.658 169.062C253.158 168.521 253.617 168.042 254.033 167.625C254.45 167.167 254.7 166.875 254.783 166.75C254.992 166.5 255.575 166.083 256.533 165.5C257.533 164.917 258.742 164.292 260.158 163.625C261.575 162.917 263.137 162.208 264.846 161.5C266.596 160.75 268.325 160.104 270.033 159.562C271.742 158.979 273.387 158.542 274.971 158.25C276.554 157.958 277.908 157.875 279.033 158C280.158 158.125 280.971 158.521 281.471 159.188C282.012 159.854 282.096 160.875 281.721 162.25C281.096 164.5 280.075 166.479 278.658 168.188C277.283 169.896 275.825 171.417 274.283 172.75C272.742 174.083 271.262 175.271 269.846 176.312C268.471 177.354 267.45 178.333 266.783 179.25C271.783 179.417 275.429 180.021 277.721 181.062C280.054 182.104 281.367 183.417 281.658 185C281.992 186.583 281.492 188.354 280.158 190.312C278.825 192.229 276.992 194.146 274.658 196.062C272.325 197.938 269.679 199.729 266.721 201.438C263.762 203.104 260.804 204.479 257.846 205.562C254.929 206.646 252.179 207.333 249.596 207.625C247.054 207.917 245.033 207.646 243.533 206.812ZM248.471 191.688C247.679 192.646 246.95 193.708 246.283 194.875C245.617 196 245.096 197.125 244.721 198.25C244.387 199.333 244.242 200.375 244.283 201.375C244.325 202.333 244.637 203.125 245.221 203.75C245.804 204.333 246.679 204.688 247.846 204.812C249.054 204.938 250.658 204.708 252.658 204.125C257.075 203.125 260.908 201.854 264.158 200.312C267.45 198.771 270.158 197.167 272.283 195.5C274.45 193.792 276.033 192.104 277.033 190.438C278.075 188.771 278.554 187.312 278.471 186.062C278.429 184.771 277.825 183.792 276.658 183.125C275.533 182.458 273.887 182.271 271.721 182.562C269.554 182.812 266.867 183.667 263.658 185.125C260.492 186.542 256.825 188.729 252.658 191.688C252.2 192.062 251.783 192.25 251.408 192.25C251.033 192.208 250.679 192.125 250.346 192C250.012 191.833 249.7 191.688 249.408 191.562C249.117 191.438 248.804 191.479 248.471 191.688ZM249.846 186.438C249.846 186.562 249.825 186.75 249.783 187C249.783 187.25 249.783 187.521 249.783 187.812C249.783 188.062 249.783 188.312 249.783 188.562C249.825 188.812 249.846 189 249.846 189.125C250.179 189.042 250.867 188.646 251.908 187.938C252.95 187.229 254.2 186.312 255.658 185.188C257.158 184.062 258.783 182.792 260.533 181.375C262.283 179.917 264.033 178.417 265.783 176.875C267.575 175.292 269.262 173.729 270.846 172.188C272.471 170.604 273.867 169.125 275.033 167.75C276.2 166.375 277.075 165.167 277.658 164.125C278.283 163.042 278.471 162.208 278.221 161.625C276.387 161.375 274.45 161.5 272.408 162C270.408 162.458 268.429 163.146 266.471 164.062C264.554 164.979 262.762 166.042 261.096 167.25C259.429 168.417 258.033 169.562 256.908 170.688C256.658 171.229 256.242 172.188 255.658 173.562C255.075 174.938 254.429 176.396 253.721 177.938C253.054 179.479 252.408 180.938 251.783 182.312C251.2 183.646 250.783 184.583 250.533 185.125C250.533 185.208 250.429 185.438 250.221 185.812C250.012 186.146 249.887 186.354 249.846 186.438ZM287.283 215C286.783 213.75 286.721 212.438 287.096 211.062C287.471 209.688 288.075 208.25 288.908 206.75C289.742 205.208 290.721 203.625 291.846 202C292.971 200.375 294.033 198.708 295.033 197C296.033 195.25 296.867 193.458 297.533 191.625C298.2 189.792 298.533 187.938 298.533 186.062C298.367 185.688 297.992 185.062 297.408 184.188C296.825 183.271 296.137 182.229 295.346 181.062C294.554 179.854 293.7 178.562 292.783 177.188C291.867 175.812 290.971 174.479 290.096 173.188C289.262 171.854 288.492 170.604 287.783 169.438C287.117 168.229 286.617 167.229 286.283 166.438C285.95 165.646 285.846 165.104 285.971 164.812C286.096 164.479 286.533 164.5 287.283 164.875C287.867 165.417 288.596 166.292 289.471 167.5C290.346 168.667 291.242 170 292.158 171.5C293.117 172.958 294.075 174.479 295.033 176.062C296.033 177.604 296.95 179 297.783 180.25C298.617 181.458 299.346 182.438 299.971 183.188C300.596 183.896 301.054 184.146 301.346 183.938C301.762 183.104 302.367 181.792 303.158 180C303.992 178.167 304.887 176.188 305.846 174.062C306.804 171.896 307.783 169.75 308.783 167.625C309.825 165.458 310.783 163.625 311.658 162.125C312.575 160.625 313.367 159.625 314.033 159.125C314.742 158.583 315.221 158.854 315.471 159.938C315.637 160.562 315.45 161.667 314.908 163.25C314.367 164.792 313.596 166.667 312.596 168.875C311.596 171.042 310.408 173.479 309.033 176.188C307.7 178.854 306.283 181.625 304.783 184.5C303.325 187.375 301.846 190.271 300.346 193.188C298.887 196.062 297.512 198.833 296.221 201.5C294.929 204.125 293.804 206.542 292.846 208.75C291.887 210.958 291.2 212.812 290.783 214.312C290.658 214.729 290.45 215.125 290.158 215.5C289.908 215.917 289.617 216.208 289.283 216.375C288.95 216.542 288.596 216.521 288.221 216.312C287.887 216.146 287.575 215.708 287.283 215Z" fill="black"/>
<ellipse cx="72.002" cy="232" rx="33" ry="27" fill="#8E8E93"/>
<ellipse cx="300.502" cy="23" rx="7.5" ry="7" fill="white"/>
<path d="M153.322 48V39.5234L156.408 39.0352V25.5C155.38 25.5 154.533 25.7734 153.869 26.3203C153.205 26.8542 152.645 27.4141 152.189 28H148.908V18H176.408V28H173.127C172.684 27.4141 172.124 26.8542 171.447 26.3203C170.783 25.7734 169.937 25.5 168.908 25.5V39.0352L171.994 39.5234V48H153.322ZM177.834 48V38.1562L180.236 37.668L185.998 18H202.131L207.912 37.668L210.314 38.1562V48H199.201L198.147 42.9609H189.982L188.947 48H177.834ZM191.662 36.2617H196.467L194.064 24.9531L191.662 36.2617ZM212.932 48V39.5234L216.467 39.0547L223.674 32.6094L216.662 26.9453L212.522 26.4766V18H232.209V26.4766L230.061 26.9453L235.119 30.6172L238.498 26.9453L234.846 26.4766V18H250.471V26.4766L246.35 26.9453L240.51 33L247.912 39.0547L251.467 39.5234V48H231.076V39.5234L233.225 39.0547L228.674 35.5781L224.904 39.0547L228.615 39.5234V48H212.932ZM253.01 48V39.5234L256.096 39.0352V26.9648L253.01 26.4766V18H271.682V26.4766L268.596 26.9648V39.0352L271.682 39.5234V48H253.01Z" fill="white"/>
</svg>
