999
"DXF R12 Output" (www.mydxf.blogspot.com)
 0 
SECTION
 2 
HEADER
 9 
$ACADVER
 1 
AC1009
 9 
$EXTMIN
 10 
 0 
 20 
 0 
 9 
$EXTMAX
 10 
 8.5 
 20 
 11 
 0 
ENDSEC
 0 
SECTION
 2 
ENTITIES
0
POLYLINE
8
Layer 1
62
7
70
0
10
0.000000
20
0.000000
66
1
0
VERTEX
8
Layer 1
10
26.723412
20
66.410436
70
0
0
VERTEX
8
Layer 1
10
87.048336
20
66.410436
70
0
0
VERTEX
8
Layer 1
10
87.048336
20
51.329205
70
0
0
VERTEX
8
Layer 1
10
26.723412
20
51.329205
70
0
0
VERTEX
8
Layer 1
10
26.723412
20
66.410436
70
0
0
SEQEND
8
Layer 1
0
POLYLINE
8
Layer 1
62
7
70
0
10
0.000000
20
0.000000
66
1
0
VERTEX
8
Layer 1
10
0.008171
20
53.731116
70
0
0
VERTEX
8
Layer 1
10
113.771188
20
53.731116
70
0
0
VERTEX
8
Layer 1
10
113.771188
20
8.744068
70
0
0
VERTEX
8
Layer 1
10
0.008171
20
8.744068
70
0
0
VERTEX
8
Layer 1
10
0.008171
20
53.731116
70
0
0
SEQEND
8
Layer 1
0
POLYLINE
8
Layer 1
62
7
70
0
10
0.000000
20
0.000000
66
1
0
VERTEX
8
Layer 1
10
52.917129
20
62.706274
70
0
0
VERTEX
8
Layer 1
10
53.446295
20
62.706274
70
0
0
VERTEX
8
Layer 1
10
53.446295
20
62.441691
70
0
0
VERTEX
8
Layer 1
10
52.917129
20
62.441691
70
0
0
VERTEX
8
Layer 1
10
52.917129
20
62.706274
70
0
0
SEQEND
8
Layer 1
0
POLYLINE
8
Layer 1
62
7
70
0
10
0.000000
20
0.000000
66
1
0
VERTEX
8
Layer 1
10
96.837907
20
14.287585
70
0
0
VERTEX
8
Layer 1
10
95.532810
20
14.207583
70
0
0
VERTEX
8
Layer 1
10
94.277710
20
13.973919
70
0
0
VERTEX
8
Layer 1
10
93.090005
20
13.596104
70
0
0
VERTEX
8
Layer 1
10
91.987091
20
13.083648
70
0
0
VERTEX
8
Layer 1
10
90.986365
20
12.446062
70
0
0
VERTEX
8
Layer 1
10
90.105226
20
11.692857
70
0
0
VERTEX
8
Layer 1
10
89.361070
20
10.833545
70
0
0
VERTEX
8
Layer 1
10
88.771294
20
9.877635
70
0
0
VERTEX
8
Layer 1
10
88.362192
20
8.860496
70
0
0
VERTEX
8
Layer 1
10
88.145736
20
7.822344
70
0
0
VERTEX
8
Layer 1
10
88.117845
20
6.779972
70
0
0
VERTEX
8
Layer 1
10
88.274436
20
5.750169
70
0
0
VERTEX
8
Layer 1
10
88.611429
20
4.749726
70
0
0
VERTEX
8
Layer 1
10
89.124739
20
3.795432
70
0
0
VERTEX
8
Layer 1
10
89.810287
20
2.904079
70
0
0
VERTEX
8
Layer 1
10
90.663989
20
2.092456
70
0
0
VERTEX
8
Layer 1
10
91.655972
20
1.393973
70
0
0
VERTEX
8
Layer 1
10
92.745404
20
0.833070
70
0
0
VERTEX
8
Layer 1
10
93.911763
20
0.413089
70
0
0
VERTEX
8
Layer 1
10
95.134527
20
0.137368
70
0
0
VERTEX
8
Layer 1
10
96.393175
20
0.009248
70
0
0
VERTEX
8
Layer 1
10
97.667185
20
0.032068
70
0
0
VERTEX
8
Layer 1
10
98.936037
20
0.209168
70
0
0
VERTEX
8
Layer 1
10
100.179208
20
0.543888
70
0
0
VERTEX
8
Layer 1
10
101.347541
20
1.026432
70
0
0
VERTEX
8
Layer 1
10
102.397812
20
1.635287
70
0
0
VERTEX
8
Layer 1
10
103.318395
20
2.356219
70
0
0
VERTEX
8
Layer 1
10
104.097667
20
3.174994
70
0
0
VERTEX
8
Layer 1
10
104.724002
20
4.077378
70
0
0
VERTEX
8
Layer 1
10
105.185777
20
5.049138
70
0
0
VERTEX
8
Layer 1
10
105.471366
20
6.076038
70
0
0
VERTEX
8
Layer 1
10
105.569146
20
7.143844
70
0
0
VERTEX
8
Layer 1
10
105.399828
20
8.544027
70
0
0
VERTEX
8
Layer 1
10
104.904520
20
9.877635
70
0
0
VERTEX
8
Layer 1
10
104.102195
20
11.107195
70
0
0
VERTEX
8
Layer 1
10
103.011825
20
12.195232
70
0
0
VERTEX
8
Layer 1
10
101.682003
20
13.087353
70
0
0
VERTEX
8
Layer 1
10
100.179208
20
13.743800
70
0
0
VERTEX
8
Layer 1
10
98.549242
20
14.149052
70
0
0
VERTEX
8
Layer 1
10
96.837907
20
14.287585
70
0
0
VERTEX
8
Layer 1
10
96.837907
20
14.287585
70
0
0
SEQEND
8
Layer 1
0
POLYLINE
8
Layer 1
62
7
70
1
10
0.000000
20
0.000000
66
1
0
VERTEX
8
Layer 1
10
13.419835
20
36.297716
70
0
0
VERTEX
8
Layer 1
10
12.725305
20
36.843286
70
0
0
VERTEX
8
Layer 1
10
12.526867
20
37.405525
70
0
0
VERTEX
8
Layer 1
10
12.675695
20
38.066982
70
0
0
VERTEX
8
Layer 1
10
13.022960
20
38.910208
70
0
0
VERTEX
8
Layer 1
10
13.221398
20
39.307083
70
0
0
VERTEX
8
Layer 1
10
13.552126
20
40.034686
70
0
0
VERTEX
8
Layer 1
10
13.965537
20
40.894581
70
0
0
VERTEX
8
Layer 1
10
14.378948
20
41.771144
70
0
0
VERTEX
8
Layer 1
10
14.709677
20
42.482211
70
0
0
VERTEX
8
Layer 1
10
14.908114
20
42.895622
70
0
0
VERTEX
8
Layer 1
10
15.090015
20
43.705907
70
0
0
VERTEX
8
Layer 1
10
15.007333
20
44.383901
70
0
0
VERTEX
8
Layer 1
10
14.957724
20
44.995749
70
0
0
VERTEX
8
Layer 1
10
15.271916
20
45.673743
70
0
0
VERTEX
8
Layer 1
10
15.486890
20
45.905254
70
0
0
VERTEX
8
Layer 1
10
15.834155
20
46.285592
70
0
0
VERTEX
8
Layer 1
10
16.197956
20
46.665930
70
0
0
VERTEX
8
Layer 1
10
16.396394
20
46.897440
70
0
0
VERTEX
8
Layer 1
10
16.859414
20
47.228169
70
0
0
VERTEX
8
Layer 1
10
17.818527
20
47.724262
70
0
0
VERTEX
8
Layer 1
10
19.058760
20
48.286501
70
0
0
VERTEX
8
Layer 1
10
20.431284
20
48.799130
70
0
0
VERTEX
8
Layer 1
10
21.737663
20
49.146395
70
0
0
VERTEX
8
Layer 1
10
22.812531
20
49.212541
70
0
0
VERTEX
8
Layer 1
10
23.197004
20
49.109192
70
0
0
VERTEX
8
Layer 1
10
23.457453
20
48.898349
70
0
0
VERTEX
8
Layer 1
10
23.581479
20
48.563483
70
0
0
VERTEX
8
Layer 1
10
23.523598
20
48.088063
70
0
0
VERTEX
8
Layer 1
10
23.197007
20
47.248836
70
0
0
VERTEX
8
Layer 1
10
22.713313
20
46.517102
70
0
0
VERTEX
8
Layer 1
10
21.555762
20
45.309942
70
0
0
VERTEX
8
Layer 1
10
20.381675
20
44.367365
70
0
0
VERTEX
8
Layer 1
10
19.571390
20
43.590152
70
0
0
VERTEX
8
Layer 1
10
21.287052
20
43.437190
70
0
0
VERTEX
8
Layer 1
10
22.465266
20
43.110596
70
0
0
VERTEX
8
Layer 1
10
23.188749
20
42.643435
70
0
0
VERTEX
8
Layer 1
10
23.507062
20
42.068800
70
0
0
VERTEX
8
Layer 1
10
23.474002
20
41.403275
70
0
0
VERTEX
8
Layer 1
10
23.110187
20
40.663335
70
0
0
VERTEX
8
Layer 1
10
21.654981
20
39.141983
70
0
0
VERTEX
8
Layer 1
10
19.554853
20
37.719585
70
0
0
VERTEX
8
Layer 1
10
17.206679
20
36.628444
70
0
0
VERTEX
8
Layer 1
10
15.023869
20
36.082610
70
0
0
VERTEX
8
Layer 1
10
14.118506
20
36.078442
70
0
0
VERTEX
8
Layer 1
10
13.419835
20
36.297716
70
0
0
VERTEX
8
Layer 1
10
13.419835
20
36.297716
70
0
0
SEQEND
8
Layer 1
0
POLYLINE
8
Layer 1
62
7
70
1
10
0.000000
20
0.000000
66
1
0
VERTEX
8
Layer 1
10
14.726214
20
40.299269
70
0
0
VERTEX
8
Layer 1
10
14.147438
20
39.456043
70
0
0
VERTEX
8
Layer 1
10
13.734027
20
38.563075
70
0
0
VERTEX
8
Layer 1
10
13.618272
20
37.736253
70
0
0
VERTEX
8
Layer 1
10
13.866319
20
37.107869
70
0
0
VERTEX
8
Layer 1
10
14.560849
20
36.826882
70
0
0
VERTEX
8
Layer 1
10
15.834155
20
37.008650
70
0
0
VERTEX
8
Layer 1
10
17.471265
20
37.459301
70
0
0
VERTEX
8
Layer 1
10
18.876859
20
38.017505
70
0
0
VERTEX
8
Layer 1
10
21.026596
20
39.290678
70
0
0
VERTEX
8
Layer 1
10
21.770739
20
39.964505
70
0
0
VERTEX
8
Layer 1
10
22.283365
20
40.629998
70
0
0
VERTEX
8
Layer 1
10
22.585165
20
41.250279
70
0
0
VERTEX
8
Layer 1
10
22.663704
20
41.787813
70
0
0
VERTEX
8
Layer 1
10
22.535556
20
42.238315
70
0
0
VERTEX
8
Layer 1
10
22.184147
20
42.564893
70
0
0
VERTEX
8
Layer 1
10
21.634314
20
42.734398
70
0
0
VERTEX
8
Layer 1
10
20.877768
20
42.713721
70
0
0
VERTEX
8
Layer 1
10
19.914534
20
42.494610
70
0
0
VERTEX
8
Layer 1
10
18.744568
20
42.035727
70
0
0
VERTEX
8
Layer 1
10
17.388590
20
41.320493
70
0
0
VERTEX
8
Layer 1
10
15.834155
20
40.299269
70
0
0
VERTEX
8
Layer 1
10
15.503426
20
40.150573
70
0
0
VERTEX
8
Layer 1
10
15.222307
20
40.216719
70
0
0
VERTEX
8
Layer 1
10
14.974260
20
40.332606
70
0
0
VERTEX
8
Layer 1
10
14.726214
20
40.299269
70
0
0
VERTEX
8
Layer 1
10
14.726214
20
40.299269
70
0
0
SEQEND
8
Layer 1
0
POLYLINE
8
Layer 1
62
7
70
1
10
0.000000
20
0.000000
66
1
0
VERTEX
8
Layer 1
10
15.090015
20
41.688330
70
0
0
VERTEX
8
Layer 1
10
15.073479
20
41.539634
70
0
0
VERTEX
8
Layer 1
10
15.073479
20
41.324793
70
0
0
VERTEX
8
Layer 1
10
15.073479
20
41.126355
70
0
0
VERTEX
8
Layer 1
10
15.090015
20
40.977395
70
0
0
VERTEX
8
Layer 1
10
15.635718
20
41.291455
70
0
0
VERTEX
8
Layer 1
10
16.627904
20
42.019058
70
0
0
VERTEX
8
Layer 1
10
17.917746
20
43.027913
70
0
0
VERTEX
8
Layer 1
10
19.306807
20
44.218537
70
0
0
VERTEX
8
Layer 1
10
20.646258
20
45.458770
70
0
0
VERTEX
8
Layer 1
10
21.754199
20
46.632857
70
0
0
VERTEX
8
Layer 1
10
22.448730
20
47.591970
70
0
0
VERTEX
8
Layer 1
10
22.597558
20
48.253428
70
0
0
VERTEX
8
Layer 1
10
21.059669
20
48.154209
70
0
0
VERTEX
8
Layer 1
10
19.488708
20
47.608507
70
0
0
VERTEX
8
Layer 1
10
18.066574
20
46.765148
70
0
0
VERTEX
8
Layer 1
10
16.958633
20
45.855644
70
0
0
VERTEX
8
Layer 1
10
16.627904
20
45.094968
70
0
0
VERTEX
8
Layer 1
10
16.115274
20
43.937417
70
0
0
VERTEX
8
Layer 1
10
15.602645
20
42.779867
70
0
0
VERTEX
8
Layer 1
10
15.271916
20
42.035727
70
0
0
VERTEX
8
Layer 1
10
15.189234
20
41.853959
70
0
0
VERTEX
8
Layer 1
10
15.090015
20
41.688330
70
0
0
VERTEX
8
Layer 1
10
15.090015
20
41.688330
70
0
0
SEQEND
8
Layer 1
0
POLYLINE
8
Layer 1
62
7
70
1
10
0.000000
20
0.000000
66
1
0
VERTEX
8
Layer 1
10
24.366957
20
36.430007
70
0
0
VERTEX
8
Layer 1
10
24.338024
20
36.913599
70
0
0
VERTEX
8
Layer 1
10
24.515785
20
37.603962
70
0
0
VERTEX
8
Layer 1
10
25.276461
20
39.422970
70
0
0
VERTEX
8
Layer 1
10
26.367866
20
41.539634
70
0
0
VERTEX
8
Layer 1
10
27.475886
20
43.573616
70
0
0
VERTEX
8
Layer 1
10
28.302708
20
45.194187
70
0
0
VERTEX
8
Layer 1
10
28.567291
20
46.054081
70
0
0
VERTEX
8
Layer 1
10
28.137344
20
46.004472
70
0
0
VERTEX
8
Layer 1
10
27.690728
20
45.772962
70
0
0
VERTEX
8
Layer 1
10
27.260780
20
45.640670
70
0
0
VERTEX
8
Layer 1
10
26.880574
20
45.872181
70
0
0
VERTEX
8
Layer 1
10
26.814429
20
46.087154
70
0
0
VERTEX
8
Layer 1
10
26.913647
20
46.302128
70
0
0
VERTEX
8
Layer 1
10
27.079012
20
46.467492
70
0
0
VERTEX
8
Layer 1
10
27.244376
20
46.599784
70
0
0
VERTEX
8
Layer 1
10
29.079921
20
47.703591
70
0
0
VERTEX
8
Layer 1
10
30.816247
20
48.534547
70
0
0
VERTEX
8
Layer 1
10
32.428483
20
49.117456
70
0
0
VERTEX
8
Layer 1
10
33.858951
20
49.477124
70
0
0
VERTEX
8
Layer 1
10
35.103252
20
49.625952
70
0
0
VERTEX
8
Layer 1
10
36.124311
20
49.576343
70
0
0
VERTEX
8
Layer 1
10
36.905790
20
49.348970
70
0
0
VERTEX
8
Layer 1
10
37.397749
20
48.964494
70
0
0
VERTEX
8
Layer 1
10
37.579583
20
48.447727
70
0
0
VERTEX
8
Layer 1
10
37.430822
20
47.790407
70
0
0
VERTEX
8
Layer 1
10
36.930561
20
47.033862
70
0
0
VERTEX
8
Layer 1
10
36.025092
20
46.186373
70
0
0
VERTEX
8
Layer 1
10
34.706311
20
45.260329
70
0
0
VERTEX
8
Layer 1
10
32.932911
20
44.268146
70
0
0
VERTEX
8
Layer 1
10
30.692190
20
43.247021
70
0
0
VERTEX
8
Layer 1
10
27.938906
20
42.201092
70
0
0
VERTEX
8
Layer 1
10
27.876796
20
41.919906
70
0
0
VERTEX
8
Layer 1
10
28.021456
20
41.605780
70
0
0
VERTEX
8
Layer 1
10
28.782132
20
40.878177
70
0
0
VERTEX
8
Layer 1
10
29.972756
20
40.084428
70
0
0
VERTEX
8
Layer 1
10
31.361817
20
39.240937
70
0
0
VERTEX
8
Layer 1
10
32.701400
20
38.414380
70
0
0
VERTEX
8
Layer 1
10
33.759732
20
37.653439
70
0
0
VERTEX
8
Layer 1
10
34.288898
20
36.975577
70
0
0
VERTEX
8
Layer 1
10
34.301202
20
36.682055
70
0
0
VERTEX
8
Layer 1
10
34.073792
20
36.430007
70
0
0
VERTEX
8
Layer 1
10
33.858951
20
36.545630
70
0
0
VERTEX
8
Layer 1
10
33.395931
20
36.909432
70
0
0
VERTEX
8
Layer 1
10
32.783950
20
37.405525
70
0
0
VERTEX
8
Layer 1
10
32.172234
20
37.901618
70
0
0
VERTEX
8
Layer 1
10
31.676141
20
38.298492
70
0
0
VERTEX
8
Layer 1
10
31.444631
20
38.496930
70
0
0
VERTEX
8
Layer 1
10
29.460259
20
39.737295
70
0
0
VERTEX
8
Layer 1
10
27.525363
20
41.109687
70
0
0
VERTEX
8
Layer 1
10
27.211270
20
41.076581
70
0
0
VERTEX
8
Layer 1
10
26.896979
20
40.778958
70
0
0
VERTEX
8
Layer 1
10
26.285183
20
39.671149
70
0
0
VERTEX
8
Layer 1
10
25.689872
20
38.248751
70
0
0
VERTEX
8
Layer 1
10
25.160706
20
36.942504
70
0
0
VERTEX
8
Layer 1
10
24.714222
20
36.198232
70
0
0
VERTEX
8
Layer 1
10
24.528187
20
36.148722
70
0
0
VERTEX
8
Layer 1
10
24.366957
20
36.430007
70
0
0
VERTEX
8
Layer 1
10
24.366957
20
36.430007
70
0
0
SEQEND
8
Layer 1
0
POLYLINE
8
Layer 1
62
7
70
1
10
0.000000
20
0.000000
66
1
0
VERTEX
8
Layer 1
10
28.302708
20
43.325569
70
0
0
VERTEX
8
Layer 1
10
29.278226
20
43.342106
70
0
0
VERTEX
8
Layer 1
10
30.650882
20
43.788590
70
0
0
VERTEX
8
Layer 1
10
32.221711
20
44.549266
70
0
0
VERTEX
8
Layer 1
10
33.792805
20
45.475306
70
0
0
VERTEX
8
Layer 1
10
35.148793
20
46.467492
70
0
0
VERTEX
8
Layer 1
10
36.124311
20
47.376996
70
0
0
VERTEX
8
Layer 1
10
36.488112
20
48.104600
70
0
0
VERTEX
8
Layer 1
10
36.405562
20
48.348515
70
0
0
VERTEX
8
Layer 1
10
36.091238
20
48.484938
70
0
0
VERTEX
8
Layer 1
10
33.048533
20
48.303037
70
0
0
VERTEX
8
Layer 1
10
31.882781
20
48.013653
70
0
0
VERTEX
8
Layer 1
10
30.898796
20
47.542361
70
0
0
VERTEX
8
Layer 1
10
30.076109
20
46.876763
70
0
0
VERTEX
8
Layer 1
10
29.394113
20
46.004472
70
0
0
VERTEX
8
Layer 1
10
28.815272
20
44.896537
70
0
0
VERTEX
8
Layer 1
10
28.302708
20
43.524006
70
0
0
VERTEX
8
Layer 1
10
28.302708
20
43.325569
70
0
0
VERTEX
8
Layer 1
10
28.302708
20
43.325569
70
0
0
SEQEND
8
Layer 1
0
POLYLINE
8
Layer 1
62
7
70
1
10
0.000000
20
0.000000
66
1
0
VERTEX
8
Layer 1
10
37.033947
20
36.430007
70
0
0
VERTEX
8
Layer 1
10
36.347553
20
36.843253
70
0
0
VERTEX
8
Layer 1
10
35.942542
20
37.388856
70
0
0
VERTEX
8
Layer 1
10
35.764709
20
38.038010
70
0
0
VERTEX
8
Layer 1
10
35.760509
20
38.728440
70
0
0
VERTEX
8
Layer 1
10
36.157384
20
40.183646
70
0
0
VERTEX
8
Layer 1
10
36.835510
20
41.473488
70
0
0
VERTEX
8
Layer 1
10
37.265457
20
42.151482
70
0
0
VERTEX
8
Layer 1
10
37.926915
20
43.160205
70
0
0
VERTEX
8
Layer 1
10
38.604776
20
44.168928
70
0
0
VERTEX
8
Layer 1
10
39.067797
20
44.830385
70
0
0
VERTEX
8
Layer 1
10
39.365452
20
45.971396
70
0
0
VERTEX
8
Layer 1
10
39.861546
20
46.847830
70
0
0
VERTEX
8
Layer 1
10
40.494130
20
47.488624
70
0
0
VERTEX
8
Layer 1
10
41.201129
20
47.889626
70
0
0
VERTEX
8
Layer 1
10
41.970008
20
48.059124
70
0
0
VERTEX
8
Layer 1
10
42.755554
20
48.005381
70
0
0
VERTEX
8
Layer 1
10
43.499694
20
47.753204
70
0
0
VERTEX
8
Layer 1
10
44.144615
20
47.294314
70
0
0
VERTEX
8
Layer 1
10
44.657212
20
46.653524
70
0
0
VERTEX
8
Layer 1
10
45.004510
20
45.822571
70
0
0
VERTEX
8
Layer 1
10
45.124300
20
44.817986
70
0
0
VERTEX
8
Layer 1
10
44.954768
20
43.656298
70
0
0
VERTEX
8
Layer 1
10
44.483480
20
42.341651
70
0
0
VERTEX
8
Layer 1
10
43.664926
20
40.878177
70
0
0
VERTEX
8
Layer 1
10
42.441296
20
39.278342
70
0
0
VERTEX
8
Layer 1
10
40.754513
20
37.554485
70
0
0
VERTEX
8
Layer 1
10
39.960764
20
36.942504
70
0
0
VERTEX
8
Layer 1
10
39.001651
20
36.479484
70
0
0
VERTEX
8
Layer 1
10
37.993060
20
36.264378
70
0
0
VERTEX
8
Layer 1
10
37.033947
20
36.430007
70
0
0
VERTEX
8
Layer 1
10
37.033947
20
36.430007
70
0
0
SEQEND
8
Layer 1
0
POLYLINE
8
Layer 1
62
7
70
1
10
0.000000
20
0.000000
66
1
0
VERTEX
8
Layer 1
10
36.455039
20
37.736253
70
0
0
VERTEX
8
Layer 1
10
36.694917
20
37.132640
70
0
0
VERTEX
8
Layer 1
10
37.083424
20
36.810213
70
0
0
VERTEX
8
Layer 1
10
37.587852
20
36.735832
70
0
0
VERTEX
8
Layer 1
10
38.174829
20
36.876359
70
0
0
VERTEX
8
Layer 1
10
39.547486
20
37.719585
70
0
0
VERTEX
8
Layer 1
10
41.035765
20
39.108645
70
0
0
VERTEX
8
Layer 1
10
42.457899
20
40.861772
70
0
0
VERTEX
8
Layer 1
10
43.631853
20
42.730258
70
0
0
VERTEX
8
Layer 1
10
44.409198
20
44.499656
70
0
0
VERTEX
8
Layer 1
10
44.582765
20
45.285134
70
0
0
VERTEX
8
Layer 1
10
44.574563
20
45.954863
70
0
0
VERTEX
8
Layer 1
10
44.384261
20
46.504693
70
0
0
VERTEX
8
Layer 1
10
43.979251
20
46.897440
70
0
0
VERTEX
8
Layer 1
10
43.346666
20
47.100011
70
0
0
VERTEX
8
Layer 1
10
42.441230
20
47.079341
70
0
0
VERTEX
8
Layer 1
10
41.432639
20
46.103691
70
0
0
VERTEX
8
Layer 1
10
40.093056
20
44.665021
70
0
0
VERTEX
8
Layer 1
10
38.670922
20
42.912158
70
0
0
VERTEX
8
Layer 1
10
37.414153
20
41.060210
70
0
0
VERTEX
8
Layer 1
10
36.587331
20
39.274274
70
0
0
VERTEX
8
Layer 1
10
36.413731
20
38.459723
70
0
0
VERTEX
8
Layer 1
10
36.455039
20
37.736253
70
0
0
VERTEX
8
Layer 1
10
36.455039
20
37.736253
70
0
0
SEQEND
8
Layer 1
0
POLYLINE
8
Layer 1
62
7
70
1
10
0.000000
20
0.000000
66
1
0
VERTEX
8
Layer 1
10
45.748517
20
36.430007
70
0
0
VERTEX
8
Layer 1
10
45.062321
20
36.843253
70
0
0
VERTEX
8
Layer 1
10
44.657112
20
37.388856
70
0
0
VERTEX
8
Layer 1
10
44.479412
20
38.038010
70
0
0
VERTEX
8
Layer 1
10
44.475344
20
38.728440
70
0
0
VERTEX
8
Layer 1
10
44.872218
20
40.183646
70
0
0
VERTEX
8
Layer 1
10
45.550080
20
41.473488
70
0
0
VERTEX
8
Layer 1
10
45.980027
20
42.151482
70
0
0
VERTEX
8
Layer 1
10
46.641485
20
43.160205
70
0
0
VERTEX
8
Layer 1
10
47.319611
20
44.168928
70
0
0
VERTEX
8
Layer 1
10
47.782631
20
44.830385
70
0
0
VERTEX
8
Layer 1
10
48.080287
20
45.971396
70
0
0
VERTEX
8
Layer 1
10
48.576380
20
46.847830
70
0
0
VERTEX
8
Layer 1
10
49.208833
20
47.488624
70
0
0
VERTEX
8
Layer 1
10
49.915700
20
47.889626
70
0
0
VERTEX
8
Layer 1
10
50.684677
20
48.059124
70
0
0
VERTEX
8
Layer 1
10
51.470125
20
48.005381
70
0
0
VERTEX
8
Layer 1
10
52.214264
20
47.753204
70
0
0
VERTEX
8
Layer 1
10
52.859185
20
47.294314
70
0
0
VERTEX
8
Layer 1
10
53.371881
20
46.653524
70
0
0
VERTEX
8
Layer 1
10
53.719080
20
45.822571
70
0
0
VERTEX
8
Layer 1
10
53.839002
20
44.817986
70
0
0
VERTEX
8
Layer 1
10
53.669603
20
43.656298
70
0
0
VERTEX
8
Layer 1
10
53.198315
20
42.341651
70
0
0
VERTEX
8
Layer 1
10
52.379761
20
40.878177
70
0
0
VERTEX
8
Layer 1
10
51.156032
20
39.278342
70
0
0
VERTEX
8
Layer 1
10
49.469348
20
37.554485
70
0
0
VERTEX
8
Layer 1
10
48.675599
20
36.942504
70
0
0
VERTEX
8
Layer 1
10
47.716486
20
36.479484
70
0
0
VERTEX
8
Layer 1
10
46.707631
20
36.264378
70
0
0
VERTEX
8
Layer 1
10
45.748517
20
36.430007
70
0
0
VERTEX
8
Layer 1
10
45.748517
20
36.430007
70
0
0
SEQEND
8
Layer 1
0
POLYLINE
8
Layer 1
62
7
70
1
10
0.000000
20
0.000000
66
1
0
VERTEX
8
Layer 1
10
45.169874
20
37.736253
70
0
0
VERTEX
8
Layer 1
10
45.409553
20
37.132640
70
0
0
VERTEX
8
Layer 1
10
45.798259
20
36.810213
70
0
0
VERTEX
8
Layer 1
10
46.302488
20
36.735832
70
0
0
VERTEX
8
Layer 1
10
46.889664
20
36.876359
70
0
0
VERTEX
8
Layer 1
10
48.262056
20
37.719585
70
0
0
VERTEX
8
Layer 1
10
49.750335
20
39.108645
70
0
0
VERTEX
8
Layer 1
10
51.172469
20
40.861772
70
0
0
VERTEX
8
Layer 1
10
52.346688
20
42.730258
70
0
0
VERTEX
8
Layer 1
10
53.123768
20
44.499656
70
0
0
VERTEX
8
Layer 1
10
53.297434
20
45.285134
70
0
0
VERTEX
8
Layer 1
10
53.289133
20
45.954863
70
0
0
VERTEX
8
Layer 1
10
53.099030
20
46.504693
70
0
0
VERTEX
8
Layer 1
10
52.693821
20
46.897440
70
0
0
VERTEX
8
Layer 1
10
52.061369
20
47.100011
70
0
0
VERTEX
8
Layer 1
10
51.156065
20
47.079341
70
0
0
VERTEX
8
Layer 1
10
50.147210
20
46.103691
70
0
0
VERTEX
8
Layer 1
10
48.807891
20
44.665021
70
0
0
VERTEX
8
Layer 1
10
47.385757
20
42.912158
70
0
0
VERTEX
8
Layer 1
10
46.128988
20
41.060210
70
0
0
VERTEX
8
Layer 1
10
45.302166
20
39.274274
70
0
0
VERTEX
8
Layer 1
10
45.128467
20
38.459723
70
0
0
VERTEX
8
Layer 1
10
45.169874
20
37.736253
70
0
0
VERTEX
8
Layer 1
10
45.169874
20
37.736253
70
0
0
SEQEND
8
Layer 1
0
POLYLINE
8
Layer 1
62
7
70
1
10
0.000000
20
0.000000
66
1
0
VERTEX
8
Layer 1
10
64.633129
20
34.726622
70
0
0
VERTEX
8
Layer 1
10
63.574797
20
36.264378
70
0
0
VERTEX
8
Layer 1
10
62.500061
20
37.603962
70
0
0
VERTEX
8
Layer 1
10
61.309437
20
38.926877
70
0
0
VERTEX
8
Layer 1
10
59.969854
20
40.332606
70
0
0
VERTEX
8
Layer 1
10
58.233660
20
41.952913
70
0
0
VERTEX
8
Layer 1
10
57.092513
20
42.564893
70
0
0
VERTEX
8
Layer 1
10
56.683303
20
42.540085
70
0
0
VERTEX
8
Layer 1
10
56.348506
20
42.300310
70
0
0
VERTEX
8
Layer 1
10
55.769598
20
41.308124
70
0
0
VERTEX
8
Layer 1
10
55.174287
20
39.737295
70
0
0
VERTEX
8
Layer 1
10
54.364134
20
37.719585
70
0
0
VERTEX
8
Layer 1
10
53.983663
20
36.909432
70
0
0
VERTEX
8
Layer 1
10
53.421424
20
36.214901
70
0
0
VERTEX
8
Layer 1
10
53.218886
20
36.165325
70
0
0
VERTEX
8
Layer 1
10
53.173510
20
36.380266
70
0
0
VERTEX
8
Layer 1
10
53.438093
20
37.405525
70
0
0
VERTEX
8
Layer 1
10
54.016736
20
38.893804
70
0
0
VERTEX
8
Layer 1
10
54.727935
20
40.514375
70
0
0
VERTEX
8
Layer 1
10
55.339651
20
41.853959
70
0
0
VERTEX
8
Layer 1
10
55.670380
20
42.564893
70
0
0
VERTEX
8
Layer 1
10
56.480798
20
44.284683
70
0
0
VERTEX
8
Layer 1
10
57.290951
20
45.839108
70
0
0
VERTEX
8
Layer 1
10
58.084700
20
47.393533
70
0
0
VERTEX
8
Layer 1
10
58.812303
20
49.146395
70
0
0
VERTEX
8
Layer 1
10
59.076886
20
49.196005
70
0
0
VERTEX
8
Layer 1
10
59.275323
20
49.063713
70
0
0
VERTEX
8
Layer 1
10
59.374542
20
48.815667
70
0
0
VERTEX
8
Layer 1
10
59.374542
20
48.584156
70
0
0
VERTEX
8
Layer 1
10
59.060482
20
47.955772
70
0
0
VERTEX
8
Layer 1
10
58.630534
20
47.079341
70
0
0
VERTEX
8
Layer 1
10
58.216991
20
46.202909
70
0
0
VERTEX
8
Layer 1
10
57.919335
20
45.574525
70
0
0
VERTEX
8
Layer 1
10
57.787044
20
45.227260
70
0
0
VERTEX
8
Layer 1
10
57.720898
20
44.813849
70
0
0
VERTEX
8
Layer 1
10
58.911522
20
44.896531
70
0
0
VERTEX
8
Layer 1
10
60.465947
20
45.425697
70
0
0
VERTEX
8
Layer 1
10
62.202405
20
46.219446
70
0
0
VERTEX
8
Layer 1
10
63.922194
20
47.128950
70
0
0
VERTEX
8
Layer 1
10
65.410474
20
47.955772
70
0
0
VERTEX
8
Layer 1
10
66.501879
20
48.551084
70
0
0
VERTEX
8
Layer 1
10
66.915157
20
48.617229
70
0
0
VERTEX
8
Layer 1
10
66.733389
20
48.220355
70
0
0
VERTEX
8
Layer 1
10
66.253700
20
47.658116
70
0
0
VERTEX
8
Layer 1
10
65.757607
20
47.261241
70
0
0
VERTEX
8
Layer 1
10
65.261514
20
46.980122
70
0
0
VERTEX
8
Layer 1
10
64.566983
20
46.632857
70
0
0
VERTEX
8
Layer 1
10
63.905526
20
46.318664
70
0
0
VERTEX
8
Layer 1
10
63.508651
20
46.136764
70
0
0
VERTEX
8
Layer 1
10
62.384173
20
45.690280
70
0
0
VERTEX
8
Layer 1
10
60.962040
20
45.161114
70
0
0
VERTEX
8
Layer 1
10
59.506833
20
44.549266
70
0
0
VERTEX
8
Layer 1
10
58.283137
20
43.887808
70
0
0
VERTEX
8
Layer 1
10
58.051627
20
43.689371
70
0
0
VERTEX
8
Layer 1
10
57.902931
20
43.507470
70
0
0
VERTEX
8
Layer 1
10
57.919335
20
43.325569
70
0
0
VERTEX
8
Layer 1
10
58.680011
20
42.730258
70
0
0
VERTEX
8
Layer 1
10
59.837562
20
41.671926
70
0
0
VERTEX
8
Layer 1
10
61.193550
20
40.315938
70
0
0
VERTEX
8
Layer 1
10
62.599279
20
38.811254
70
0
0
VERTEX
8
Layer 1
10
63.839380
20
37.322710
70
0
0
VERTEX
8
Layer 1
10
64.732348
20
36.016464
70
0
0
VERTEX
8
Layer 1
10
65.129222
20
35.024278
70
0
0
VERTEX
8
Layer 1
10
65.075479
20
34.705951
70
0
0
VERTEX
8
Layer 1
10
64.815162
20
34.544589
70
0
0
VERTEX
8
Layer 1
10
64.715943
20
34.627403
70
0
0
VERTEX
8
Layer 1
10
64.633129
20
34.726622
70
0
0
VERTEX
8
Layer 1
10
64.633129
20
34.726622
70
0
0
SEQEND
8
Layer 1
0
POLYLINE
8
Layer 1
62
7
70
1
10
0.000000
20
0.000000
66
1
0
VERTEX
8
Layer 1
10
66.485210
20
36.430007
70
0
0
VERTEX
8
Layer 1
10
66.299307
20
36.657251
70
0
0
VERTEX
8
Layer 1
10
66.270369
20
36.975577
70
0
0
VERTEX
8
Layer 1
10
66.501879
20
37.719585
70
0
0
VERTEX
8
Layer 1
10
67.031045
20
38.662294
70
0
0
VERTEX
8
Layer 1
10
67.973489
20
40.464898
70
0
0
VERTEX
8
Layer 1
10
68.767238
20
41.986250
70
0
0
VERTEX
8
Layer 1
10
69.461769
20
43.358642
70
0
0
VERTEX
8
Layer 1
10
70.123226
20
44.747703
70
0
0
VERTEX
8
Layer 1
10
70.834425
20
46.302128
70
0
0
VERTEX
8
Layer 1
10
71.644578
20
48.187282
70
0
0
VERTEX
8
Layer 1
10
71.743797
20
48.369183
70
0
0
VERTEX
8
Layer 1
10
71.925830
20
48.567620
70
0
0
VERTEX
8
Layer 1
10
72.157340
20
48.617229
70
0
0
VERTEX
8
Layer 1
10
72.388850
20
48.385719
70
0
0
VERTEX
8
Layer 1
10
72.475534
20
47.992979
70
0
0
VERTEX
8
Layer 1
10
72.405255
20
47.476215
70
0
0
VERTEX
8
Layer 1
10
71.925830
20
46.136764
70
0
0
VERTEX
8
Layer 1
10
71.099008
20
44.516193
70
0
0
VERTEX
8
Layer 1
10
70.090153
20
42.763330
70
0
0
VERTEX
8
Layer 1
10
69.048490
20
40.994064
70
0
0
VERTEX
8
Layer 1
10
68.138854
20
39.356824
70
0
0
VERTEX
8
Layer 1
10
67.543542
20
37.967764
70
0
0
VERTEX
8
Layer 1
10
67.411250
20
36.991981
70
0
0
VERTEX
8
Layer 1
10
69.776093
20
37.008650
70
0
0
VERTEX
8
Layer 1
10
72.157340
20
37.322710
70
0
0
VERTEX
8
Layer 1
10
74.538587
20
37.670108
70
0
0
VERTEX
8
Layer 1
10
76.936238
20
37.736253
70
0
0
VERTEX
8
Layer 1
10
77.300040
20
37.587293
70
0
0
VERTEX
8
Layer 1
10
77.316709
20
37.190419
70
0
0
VERTEX
8
Layer 1
10
77.167749
20
37.190419
70
0
0
VERTEX
8
Layer 1
10
76.952907
20
37.207087
70
0
0
VERTEX
8
Layer 1
10
76.721397
20
37.190419
70
0
0
VERTEX
8
Layer 1
10
76.572437
20
37.190419
70
0
0
VERTEX
8
Layer 1
10
74.406296
20
36.893027
70
0
0
VERTEX
8
Layer 1
10
71.843016
20
36.512557
70
0
0
VERTEX
8
Layer 1
10
69.197186
20
36.231570
70
0
0
VERTEX
8
Layer 1
10
66.832607
20
36.247974
70
0
0
VERTEX
8
Layer 1
10
66.667243
20
36.314120
70
0
0
VERTEX
8
Layer 1
10
66.485210
20
36.430007
70
0
0
VERTEX
8
Layer 1
10
66.485210
20
36.430007
70
0
0
SEQEND
8
Layer 1
0
POLYLINE
8
Layer 1
62
7
70
1
10
0.000000
20
0.000000
66
1
0
VERTEX
8
Layer 1
10
78.523736
20
34.131310
70
0
0
VERTEX
8
Layer 1
10
78.412182
20
34.639772
70
0
0
VERTEX
8
Layer 1
10
78.474259
20
35.173238
70
0
0
VERTEX
8
Layer 1
10
78.953684
20
36.314120
70
0
0
VERTEX
8
Layer 1
10
79.731029
20
37.570889
70
0
0
VERTEX
8
Layer 1
10
80.574255
20
38.893804
70
0
0
VERTEX
8
Layer 1
10
81.235712
20
40.315938
70
0
0
VERTEX
8
Layer 1
10
81.500295
20
41.787813
70
0
0
VERTEX
8
Layer 1
10
81.202639
20
42.283774
70
0
0
VERTEX
8
Layer 1
10
80.657069
20
43.110596
70
0
0
VERTEX
8
Layer 1
10
79.978943
20
44.135855
70
0
0
VERTEX
8
Layer 1
10
79.268008
20
45.194187
70
0
0
VERTEX
8
Layer 1
10
78.656028
20
46.186373
70
0
0
VERTEX
8
Layer 1
10
78.259153
20
46.980122
70
0
0
VERTEX
8
Layer 1
10
78.176604
20
47.410069
70
0
0
VERTEX
8
Layer 1
10
78.523736
20
47.393533
70
0
0
VERTEX
8
Layer 1
10
79.102644
20
46.699003
70
0
0
VERTEX
8
Layer 1
10
79.813579
20
45.640670
70
0
0
VERTEX
8
Layer 1
10
80.574255
20
44.433511
70
0
0
VERTEX
8
Layer 1
10
81.301858
20
43.325569
70
0
0
VERTEX
8
Layer 1
10
81.880766
20
42.548357
70
0
0
VERTEX
8
Layer 1
10
82.244567
20
42.349919
70
0
0
VERTEX
8
Layer 1
10
82.723992
20
43.391715
70
0
0
VERTEX
8
Layer 1
10
83.435191
20
44.962677
70
0
0
VERTEX
8
Layer 1
10
84.212271
20
46.665930
70
0
0
VERTEX
8
Layer 1
10
84.972947
20
48.121136
70
0
0
VERTEX
8
Layer 1
10
85.601332
20
48.914885
70
0
0
VERTEX
8
Layer 1
10
85.837108
20
48.968629
70
0
0
VERTEX
8
Layer 1
10
85.981802
20
48.699911
70
0
0
VERTEX
8
Layer 1
10
85.832842
20
47.823480
70
0
0
VERTEX
8
Layer 1
10
85.221126
20
46.335201
70
0
0
VERTEX
8
Layer 1
10
84.278417
20
44.400438
70
0
0
VERTEX
8
Layer 1
10
83.153939
20
42.201092
70
0
0
VERTEX
8
Layer 1
10
81.979984
20
39.902394
70
0
0
VERTEX
8
Layer 1
10
80.888579
20
37.703181
70
0
0
VERTEX
8
Layer 1
10
79.995612
20
35.784954
70
0
0
VERTEX
8
Layer 1
10
79.449777
20
34.313343
70
0
0
VERTEX
8
Layer 1
10
79.284413
20
33.999019
70
0
0
VERTEX
8
Layer 1
10
79.052902
20
33.767508
70
0
0
VERTEX
8
Layer 1
10
78.771915
20
33.784177
70
0
0
VERTEX
8
Layer 1
10
78.523736
20
34.131310
70
0
0
VERTEX
8
Layer 1
10
78.523736
20
34.131310
70
0
0
SEQEND
8
Layer 1
0
POLYLINE
8
Layer 1
62
7
70
1
10
0.000000
20
0.000000
66
1
0
VERTEX
8
Layer 1
10
84.427377
20
36.628444
70
0
0
VERTEX
8
Layer 1
10
84.824251
20
37.769326
70
0
0
VERTEX
8
Layer 1
10
85.469040
20
39.009691
70
0
0
VERTEX
8
Layer 1
10
86.147166
20
40.166977
70
0
0
VERTEX
8
Layer 1
10
86.676332
20
41.109687
70
0
0
VERTEX
8
Layer 1
10
86.973988
20
41.704998
70
0
0
VERTEX
8
Layer 1
10
87.437009
20
42.631039
70
0
0
VERTEX
8
Layer 1
10
87.982579
20
43.722444
70
0
0
VERTEX
8
Layer 1
10
88.528413
20
44.797312
70
0
0
VERTEX
8
Layer 1
10
88.991434
20
45.723353
70
0
0
VERTEX
8
Layer 1
10
89.305494
20
46.335201
70
0
0
VERTEX
8
Layer 1
10
89.772681
20
46.674191
70
0
0
VERTEX
8
Layer 1
10
90.148984
20
46.632857
70
0
0
VERTEX
8
Layer 1
10
90.475579
20
46.281464
70
0
0
VERTEX
8
Layer 1
10
90.760700
20
45.690280
70
0
0
VERTEX
8
Layer 1
10
91.240389
20
43.937417
70
0
0
VERTEX
8
Layer 1
10
91.703409
20
41.804217
70
0
0
VERTEX
8
Layer 1
10
92.265648
20
39.720626
70
0
0
VERTEX
8
Layer 1
10
93.026324
20
38.116459
70
0
0
VERTEX
8
Layer 1
10
93.261836
20
38.120626
70
0
0
VERTEX
8
Layer 1
10
93.538822
20
38.331565
70
0
0
VERTEX
8
Layer 1
10
94.216948
20
39.240937
70
0
0
VERTEX
8
Layer 1
10
94.977624
20
40.663335
70
0
0
VERTEX
8
Layer 1
10
95.771373
20
42.366456
70
0
0
VERTEX
8
Layer 1
10
96.565122
20
44.168928
70
0
0
VERTEX
8
Layer 1
10
97.276057
20
45.839108
70
0
0
VERTEX
8
Layer 1
10
97.838295
20
47.195096
70
0
0
VERTEX
8
Layer 1
10
98.218766
20
48.005381
70
0
0
VERTEX
8
Layer 1
10
98.450276
20
48.203818
70
0
0
VERTEX
8
Layer 1
10
98.665117
20
48.071527
70
0
0
VERTEX
8
Layer 1
10
98.781005
20
47.757334
70
0
0
VERTEX
8
Layer 1
10
98.781005
20
47.426606
70
0
0
VERTEX
8
Layer 1
10
97.788818
20
44.830385
70
0
0
VERTEX
8
Layer 1
10
96.829705
20
42.597966
70
0
0
VERTEX
8
Layer 1
10
95.787777
20
40.398752
70
0
0
VERTEX
8
Layer 1
10
94.531008
20
37.934691
70
0
0
VERTEX
8
Layer 1
10
94.010143
20
37.430296
70
0
0
VERTEX
8
Layer 1
10
93.505749
20
37.207087
70
0
0
VERTEX
8
Layer 1
10
93.001454
20
37.355882
70
0
0
VERTEX
8
Layer 1
10
92.480490
20
37.934691
70
0
0
VERTEX
8
Layer 1
10
91.620595
20
39.753699
70
0
0
VERTEX
8
Layer 1
10
91.075025
20
41.440415
70
0
0
VERTEX
8
Layer 1
10
90.678150
20
43.143668
70
0
0
VERTEX
8
Layer 1
10
90.231534
20
45.028822
70
0
0
VERTEX
8
Layer 1
10
90.033097
20
44.991615
70
0
0
VERTEX
8
Layer 1
10
89.735441
20
44.681557
70
0
0
VERTEX
8
Layer 1
10
88.925288
20
43.490934
70
0
0
VERTEX
8
Layer 1
10
87.982579
20
41.820621
70
0
0
VERTEX
8
Layer 1
10
87.040134
20
40.034686
70
0
0
VERTEX
8
Layer 1
10
86.246385
20
38.496930
70
0
0
VERTEX
8
Layer 1
10
85.750292
20
37.554485
70
0
0
VERTEX
8
Layer 1
10
85.535186
20
37.190419
70
0
0
VERTEX
8
Layer 1
10
85.287272
20
36.760736
70
0
0
VERTEX
8
Layer 1
10
85.072166
20
36.396670
70
0
0
VERTEX
8
Layer 1
10
84.989616
20
36.247974
70
0
0
VERTEX
8
Layer 1
10
84.427377
20
36.247974
70
0
0
VERTEX
8
Layer 1
10
84.410708
20
36.430007
70
0
0
VERTEX
8
Layer 1
10
84.427377
20
36.628444
70
0
0
VERTEX
8
Layer 1
10
84.427377
20
36.628444
70
0
0
SEQEND
8
Layer 1
0
POLYLINE
8
Layer 1
62
7
70
1
10
0.000000
20
0.000000
66
1
0
VERTEX
8
Layer 1
10
38.555299
20
13.808161
70
0
0
VERTEX
8
Layer 1
10
37.860769
20
14.353731
70
0
0
VERTEX
8
Layer 1
10
37.662332
20
14.915970
70
0
0
VERTEX
8
Layer 1
10
37.811027
20
15.577427
70
0
0
VERTEX
8
Layer 1
10
38.158425
20
16.420653
70
0
0
VERTEX
8
Layer 1
10
38.356862
20
16.817528
70
0
0
VERTEX
8
Layer 1
10
38.687591
20
17.545131
70
0
0
VERTEX
8
Layer 1
10
39.100869
20
18.405026
70
0
0
VERTEX
8
Layer 1
10
39.514413
20
19.281589
70
0
0
VERTEX
8
Layer 1
10
39.845141
20
19.992524
70
0
0
VERTEX
8
Layer 1
10
40.043579
20
20.406067
70
0
0
VERTEX
8
Layer 1
10
40.225347
20
21.216485
70
0
0
VERTEX
8
Layer 1
10
40.142797
20
21.894346
70
0
0
VERTEX
8
Layer 1
10
40.093056
20
22.506062
70
0
0
VERTEX
8
Layer 1
10
40.407380
20
23.184188
70
0
0
VERTEX
8
Layer 1
10
40.622222
20
23.415699
70
0
0
VERTEX
8
Layer 1
10
40.969619
20
23.796169
70
0
0
VERTEX
8
Layer 1
10
41.333421
20
24.176375
70
0
0
VERTEX
8
Layer 1
10
41.531858
20
24.407885
70
0
0
VERTEX
8
Layer 1
10
41.994878
20
24.738613
70
0
0
VERTEX
8
Layer 1
10
42.953992
20
25.234707
70
0
0
VERTEX
8
Layer 1
10
44.194092
20
25.796945
70
0
0
VERTEX
8
Layer 1
10
45.566749
20
26.309707
70
0
0
VERTEX
8
Layer 1
10
46.872995
20
26.656840
70
0
0
VERTEX
8
Layer 1
10
47.947996
20
26.722986
70
0
0
VERTEX
8
Layer 1
10
48.332402
20
26.619600
70
0
0
VERTEX
8
Layer 1
10
48.592785
20
26.408661
70
0
0
VERTEX
8
Layer 1
10
48.716841
20
26.073931
70
0
0
VERTEX
8
Layer 1
10
48.658930
20
25.598508
70
0
0
VERTEX
8
Layer 1
10
48.332336
20
24.759284
70
0
0
VERTEX
8
Layer 1
10
47.848777
20
24.027414
70
0
0
VERTEX
8
Layer 1
10
46.691227
20
22.820387
70
0
0
VERTEX
8
Layer 1
10
45.517007
20
21.877942
70
0
0
VERTEX
8
Layer 1
10
44.706854
20
21.100597
70
0
0
VERTEX
8
Layer 1
10
46.422509
20
20.947602
70
0
0
VERTEX
8
Layer 1
10
47.600598
20
20.621173
70
0
0
VERTEX
8
Layer 1
10
48.324167
20
20.153886
70
0
0
VERTEX
8
Layer 1
10
48.642526
20
19.579245
70
0
0
VERTEX
8
Layer 1
10
48.609387
20
18.913720
70
0
0
VERTEX
8
Layer 1
10
48.245652
20
18.173780
70
0
0
VERTEX
8
Layer 1
10
46.790445
20
16.652428
70
0
0
VERTEX
8
Layer 1
10
44.690185
20
15.230030
70
0
0
VERTEX
8
Layer 1
10
42.342011
20
14.138889
70
0
0
VERTEX
8
Layer 1
10
40.159201
20
13.593055
70
0
0
VERTEX
8
Layer 1
10
39.253964
20
13.588887
70
0
0
VERTEX
8
Layer 1
10
38.555299
20
13.808161
70
0
0
VERTEX
8
Layer 1
10
38.555299
20
13.808161
70
0
0
SEQEND
8
Layer 1
0
POLYLINE
8
Layer 1
62
7
70
1
10
0.000000
20
0.000000
66
1
0
VERTEX
8
Layer 1
10
39.861546
20
17.809714
70
0
0
VERTEX
8
Layer 1
10
39.282903
20
16.966488
70
0
0
VERTEX
8
Layer 1
10
38.869359
20
16.073520
70
0
0
VERTEX
8
Layer 1
10
38.753737
20
15.246698
70
0
0
VERTEX
8
Layer 1
10
39.001651
20
14.618314
70
0
0
VERTEX
8
Layer 1
10
39.696181
20
14.337327
70
0
0
VERTEX
8
Layer 1
10
40.969619
20
14.519095
70
0
0
VERTEX
8
Layer 1
10
42.606660
20
14.969746
70
0
0
VERTEX
8
Layer 1
10
44.012324
20
15.527950
70
0
0
VERTEX
8
Layer 1
10
46.162061
20
16.801124
70
0
0
VERTEX
8
Layer 1
10
46.906134
20
17.474950
70
0
0
VERTEX
8
Layer 1
10
47.418830
20
18.140443
70
0
0
VERTEX
8
Layer 1
10
47.720554
20
18.760724
70
0
0
VERTEX
8
Layer 1
10
47.799036
20
19.298258
70
0
0
VERTEX
8
Layer 1
10
47.670944
20
19.748710
70
0
0
VERTEX
8
Layer 1
10
47.319611
20
20.075338
70
0
0
VERTEX
8
Layer 1
10
46.769742
20
20.244870
70
0
0
VERTEX
8
Layer 1
10
46.013100
20
20.224298
70
0
0
VERTEX
8
Layer 1
10
45.049952
20
20.005091
70
0
0
VERTEX
8
Layer 1
10
43.880032
20
19.546172
70
0
0
VERTEX
8
Layer 1
10
42.523945
20
18.830938
70
0
0
VERTEX
8
Layer 1
10
40.969619
20
17.809714
70
0
0
VERTEX
8
Layer 1
10
40.638890
20
17.661018
70
0
0
VERTEX
8
Layer 1
10
40.357639
20
17.727164
70
0
0
VERTEX
8
Layer 1
10
40.109724
20
17.843051
70
0
0
VERTEX
8
Layer 1
10
39.861546
20
17.809714
70
0
0
VERTEX
8
Layer 1
10
39.861546
20
17.809714
70
0
0
SEQEND
8
Layer 1
0
POLYLINE
8
Layer 1
62
7
70
1
10
0.000000
20
0.000000
66
1
0
VERTEX
8
Layer 1
10
40.225347
20
19.198775
70
0
0
VERTEX
8
Layer 1
10
40.208943
20
19.050079
70
0
0
VERTEX
8
Layer 1
10
40.208943
20
18.835238
70
0
0
VERTEX
8
Layer 1
10
40.208943
20
18.636800
70
0
0
VERTEX
8
Layer 1
10
40.225347
20
18.487840
70
0
0
VERTEX
8
Layer 1
10
40.771182
20
18.801900
70
0
0
VERTEX
8
Layer 1
10
41.763368
20
19.529503
70
0
0
VERTEX
8
Layer 1
10
43.053210
20
20.538358
70
0
0
VERTEX
8
Layer 1
10
44.442271
20
21.728982
70
0
0
VERTEX
8
Layer 1
10
45.781590
20
22.969082
70
0
0
VERTEX
8
Layer 1
10
46.889664
20
24.143302
70
0
0
VERTEX
8
Layer 1
10
47.584194
20
25.102415
70
0
0
VERTEX
8
Layer 1
10
47.732890
20
25.763873
70
0
0
VERTEX
8
Layer 1
10
46.195133
20
25.664654
70
0
0
VERTEX
8
Layer 1
10
44.624040
20
25.119084
70
0
0
VERTEX
8
Layer 1
10
43.201906
20
24.275593
70
0
0
VERTEX
8
Layer 1
10
42.094097
20
23.365957
70
0
0
VERTEX
8
Layer 1
10
41.763368
20
22.605545
70
0
0
VERTEX
8
Layer 1
10
41.250606
20
21.447730
70
0
0
VERTEX
8
Layer 1
10
40.738109
20
20.290444
70
0
0
VERTEX
8
Layer 1
10
40.407380
20
19.546172
70
0
0
VERTEX
8
Layer 1
10
40.324566
20
19.364404
70
0
0
VERTEX
8
Layer 1
10
40.225347
20
19.198775
70
0
0
VERTEX
8
Layer 1
10
40.225347
20
19.198775
70
0
0
SEQEND
8
Layer 1
0
POLYLINE
8
Layer 1
62
7
70
1
10
0.000000
20
0.000000
66
1
0
VERTEX
8
Layer 1
10
47.931327
20
10.699310
70
0
0
VERTEX
8
Layer 1
10
47.782631
20
10.864410
70
0
0
VERTEX
8
Layer 1
10
47.600598
20
11.112589
70
0
0
VERTEX
8
Layer 1
10
47.551121
20
11.344099
70
0
0
VERTEX
8
Layer 1
10
47.732890
20
11.443318
70
0
0
VERTEX
8
Layer 1
10
48.150435
20
11.112589
70
0
0
VERTEX
8
Layer 1
10
48.708672
20
11.079516
70
0
0
VERTEX
8
Layer 1
10
50.064660
20
11.658159
70
0
0
VERTEX
8
Layer 1
10
51.536270
20
12.799306
70
0
0
VERTEX
8
Layer 1
10
52.892258
20
14.155293
70
0
0
VERTEX
8
Layer 1
10
53.884445
20
15.378990
70
0
0
VERTEX
8
Layer 1
10
54.281319
20
16.106593
70
0
0
VERTEX
8
Layer 1
10
54.149028
20
16.255553
70
0
0
VERTEX
8
Layer 1
10
53.834968
20
16.486799
70
0
0
VERTEX
8
Layer 1
10
53.520643
20
16.701905
70
0
0
VERTEX
8
Layer 1
10
53.338874
20
16.850865
70
0
0
VERTEX
8
Layer 1
10
53.652934
20
17.098779
70
0
0
VERTEX
8
Layer 1
10
54.248246
20
17.264144
70
0
0
VERTEX
8
Layer 1
10
54.893300
20
17.412839
70
0
0
VERTEX
8
Layer 1
10
55.389393
20
17.611277
70
0
0
VERTEX
8
Layer 1
10
56.910745
20
19.893570
70
0
0
VERTEX
8
Layer 1
10
58.150845
20
21.894346
70
0
0
VERTEX
8
Layer 1
10
59.358138
20
23.928460
70
0
0
VERTEX
8
Layer 1
10
60.763603
20
26.276370
70
0
0
VERTEX
8
Layer 1
10
60.957939
20
26.520415
70
0
0
VERTEX
8
Layer 1
10
61.111000
20
26.524549
70
0
0
VERTEX
8
Layer 1
10
61.309437
20
25.962310
70
0
0
VERTEX
8
Layer 1
10
61.391987
20
24.821163
70
0
0
VERTEX
8
Layer 1
10
61.391987
20
23.349553
70
0
0
VERTEX
8
Layer 1
10
61.325841
20
21.728982
70
0
0
VERTEX
8
Layer 1
10
61.243292
20
20.207630
70
0
0
VERTEX
8
Layer 1
10
61.177146
20
19.000337
70
0
0
VERTEX
8
Layer 1
10
61.177146
20
18.355549
70
0
0
VERTEX
8
Layer 1
10
61.259696
20
16.883673
70
0
0
VERTEX
8
Layer 1
10
61.425060
20
15.742792
70
0
0
VERTEX
8
Layer 1
10
61.871676
20
14.734201
70
0
0
VERTEX
8
Layer 1
10
62.863862
20
13.675869
70
0
0
VERTEX
8
Layer 1
10
62.363602
20
13.593055
70
0
0
VERTEX
8
Layer 1
10
61.954226
20
13.708677
70
0
0
VERTEX
8
Layer 1
10
61.375583
20
14.320658
70
0
0
VERTEX
8
Layer 1
10
61.011781
20
15.296175
70
0
0
VERTEX
8
Layer 1
10
60.747198
20
16.371176
70
0
0
VERTEX
8
Layer 1
10
60.465947
20
17.280548
70
0
0
VERTEX
8
Layer 1
10
60.052668
20
17.793310
70
0
0
VERTEX
8
Layer 1
10
59.953449
20
17.793310
70
0
0
VERTEX
8
Layer 1
10
59.788085
20
17.809714
70
0
0
VERTEX
8
Layer 1
10
59.622721
20
17.793310
70
0
0
VERTEX
8
Layer 1
10
59.506833
20
17.793310
70
0
0
VERTEX
8
Layer 1
10
58.944594
20
17.661018
70
0
0
VERTEX
8
Layer 1
10
58.068296
20
17.446177
70
0
0
VERTEX
8
Layer 1
10
57.142255
20
17.214402
70
0
0
VERTEX
8
Layer 1
10
56.513870
20
17.049302
70
0
0
VERTEX
8
Layer 1
10
55.637307
20
16.520136
70
0
0
VERTEX
8
Layer 1
10
54.678194
20
15.511281
70
0
0
VERTEX
8
Layer 1
10
53.636530
20
14.237843
70
0
0
VERTEX
8
Layer 1
10
52.545125
20
12.882120
70
0
0
VERTEX
8
Layer 1
10
51.403979
20
11.658159
70
0
0
VERTEX
8
Layer 1
10
50.246428
20
10.748787
70
0
0
VERTEX
8
Layer 1
10
49.088878
20
10.368582
70
0
0
VERTEX
8
Layer 1
10
48.501867
20
10.426294
70
0
0
VERTEX
8
Layer 1
10
47.931327
20
10.699310
70
0
0
VERTEX
8
Layer 1
10
47.931327
20
10.699310
70
0
0
SEQEND
8
Layer 1
0
POLYLINE
8
Layer 1
62
7
70
1
10
0.000000
20
0.000000
66
1
0
VERTEX
8
Layer 1
10
56.894076
20
17.975343
70
0
0
VERTEX
8
Layer 1
10
57.059441
20
17.958674
70
0
0
VERTEX
8
Layer 1
10
57.257878
20
17.975343
70
0
0
VERTEX
8
Layer 1
10
58.002150
20
18.090966
70
0
0
VERTEX
8
Layer 1
10
58.895117
20
18.239926
70
0
0
VERTEX
8
Layer 1
10
59.721939
20
18.454767
70
0
0
VERTEX
8
Layer 1
10
60.251105
20
18.735754
70
0
0
VERTEX
8
Layer 1
10
60.300582
20
19.083152
70
0
0
VERTEX
8
Layer 1
10
60.416470
20
19.959715
70
0
0
VERTEX
8
Layer 1
10
60.548761
20
21.150339
70
0
0
VERTEX
8
Layer 1
10
60.697457
20
22.439916
70
0
0
VERTEX
8
Layer 1
10
60.796675
20
23.597732
70
0
0
VERTEX
8
Layer 1
10
60.862821
20
24.440958
70
0
0
VERTEX
8
Layer 1
10
60.652081
20
24.374812
70
0
0
VERTEX
8
Layer 1
10
60.383397
20
24.011010
70
0
0
VERTEX
8
Layer 1
10
59.606052
20
22.638354
70
0
0
VERTEX
8
Layer 1
10
58.465170
20
20.587835
70
0
0
VERTEX
8
Layer 1
10
56.894076
20
18.173780
70
0
0
VERTEX
8
Layer 1
10
56.894076
20
17.975343
70
0
0
VERTEX
8
Layer 1
10
56.894076
20
17.975343
70
0
0
SEQEND
8
Layer 1
0
POLYLINE
8
Layer 1
62
7
70
1
10
0.000000
20
0.000000
66
1
0
VERTEX
8
Layer 1
10
64.434692
20
13.808161
70
0
0
VERTEX
8
Layer 1
10
63.740161
20
14.353731
70
0
0
VERTEX
8
Layer 1
10
63.541724
20
14.915970
70
0
0
VERTEX
8
Layer 1
10
63.690684
20
15.577427
70
0
0
VERTEX
8
Layer 1
10
64.037817
20
16.420653
70
0
0
VERTEX
8
Layer 1
10
64.236254
20
16.817528
70
0
0
VERTEX
8
Layer 1
10
64.566983
20
17.545131
70
0
0
VERTEX
8
Layer 1
10
64.980526
20
18.405026
70
0
0
VERTEX
8
Layer 1
10
65.393805
20
19.281589
70
0
0
VERTEX
8
Layer 1
10
65.724534
20
19.992524
70
0
0
VERTEX
8
Layer 1
10
65.922971
20
20.406067
70
0
0
VERTEX
8
Layer 1
10
66.105004
20
21.216485
70
0
0
VERTEX
8
Layer 1
10
66.022190
20
21.894346
70
0
0
VERTEX
8
Layer 1
10
65.972713
20
22.506062
70
0
0
VERTEX
8
Layer 1
10
66.286773
20
23.184188
70
0
0
VERTEX
8
Layer 1
10
66.501879
20
23.415699
70
0
0
VERTEX
8
Layer 1
10
66.849012
20
23.796169
70
0
0
VERTEX
8
Layer 1
10
67.212813
20
24.176375
70
0
0
VERTEX
8
Layer 1
10
67.411250
20
24.407885
70
0
0
VERTEX
8
Layer 1
10
67.874271
20
24.738613
70
0
0
VERTEX
8
Layer 1
10
68.833384
20
25.234707
70
0
0
VERTEX
8
Layer 1
10
70.073749
20
25.796945
70
0
0
VERTEX
8
Layer 1
10
71.446141
20
26.309707
70
0
0
VERTEX
8
Layer 1
10
72.752652
20
26.656840
70
0
0
VERTEX
8
Layer 1
10
73.827388
20
26.722986
70
0
0
VERTEX
8
Layer 1
10
74.211927
20
26.619600
70
0
0
VERTEX
8
Layer 1
10
74.472442
20
26.408661
70
0
0
VERTEX
8
Layer 1
10
74.596399
20
26.073931
70
0
0
VERTEX
8
Layer 1
10
74.538587
20
25.598508
70
0
0
VERTEX
8
Layer 1
10
74.211960
20
24.759284
70
0
0
VERTEX
8
Layer 1
10
73.728170
20
24.027414
70
0
0
VERTEX
8
Layer 1
10
72.570619
20
22.820387
70
0
0
VERTEX
8
Layer 1
10
71.396664
20
21.877942
70
0
0
VERTEX
8
Layer 1
10
70.586246
20
21.100597
70
0
0
VERTEX
8
Layer 1
10
72.301935
20
20.947602
70
0
0
VERTEX
8
Layer 1
10
73.480255
20
20.621173
70
0
0
VERTEX
8
Layer 1
10
74.203691
20
20.153886
70
0
0
VERTEX
8
Layer 1
10
74.521919
20
19.579245
70
0
0
VERTEX
8
Layer 1
10
74.488978
20
18.913720
70
0
0
VERTEX
8
Layer 1
10
74.125044
20
18.173780
70
0
0
VERTEX
8
Layer 1
10
72.669838
20
16.652428
70
0
0
VERTEX
8
Layer 1
10
70.569842
20
15.230030
70
0
0
VERTEX
8
Layer 1
10
68.221668
20
14.138889
70
0
0
VERTEX
8
Layer 1
10
66.038858
20
13.593055
70
0
0
VERTEX
8
Layer 1
10
65.133389
20
13.588887
70
0
0
VERTEX
8
Layer 1
10
64.434692
20
13.808161
70
0
0
VERTEX
8
Layer 1
10
64.434692
20
13.808161
70
0
0
SEQEND
8
Layer 1
0
POLYLINE
8
Layer 1
62
7
70
1
10
0.000000
20
0.000000
66
1
0
VERTEX
8
Layer 1
10
65.741203
20
17.809714
70
0
0
VERTEX
8
Layer 1
10
65.162295
20
16.966488
70
0
0
VERTEX
8
Layer 1
10
64.749016
20
16.073520
70
0
0
VERTEX
8
Layer 1
10
64.633129
20
15.246698
70
0
0
VERTEX
8
Layer 1
10
64.881308
20
14.618314
70
0
0
VERTEX
8
Layer 1
10
65.575838
20
14.337327
70
0
0
VERTEX
8
Layer 1
10
66.849012
20
14.519095
70
0
0
VERTEX
8
Layer 1
10
68.486152
20
14.969746
70
0
0
VERTEX
8
Layer 1
10
69.891716
20
15.527950
70
0
0
VERTEX
8
Layer 1
10
72.041453
20
16.801124
70
0
0
VERTEX
8
Layer 1
10
72.785626
20
17.474950
70
0
0
VERTEX
8
Layer 1
10
73.298222
20
18.140443
70
0
0
VERTEX
8
Layer 1
10
73.600078
20
18.760724
70
0
0
VERTEX
8
Layer 1
10
73.678693
20
19.298258
70
0
0
VERTEX
8
Layer 1
10
73.550469
20
19.748710
70
0
0
VERTEX
8
Layer 1
10
73.199004
20
20.075338
70
0
0
VERTEX
8
Layer 1
10
72.649167
20
20.244870
70
0
0
VERTEX
8
Layer 1
10
71.892757
20
20.224298
70
0
0
VERTEX
8
Layer 1
10
70.929477
20
20.005091
70
0
0
VERTEX
8
Layer 1
10
69.759425
20
19.546172
70
0
0
VERTEX
8
Layer 1
10
68.403536
20
18.830938
70
0
0
VERTEX
8
Layer 1
10
66.849012
20
17.809714
70
0
0
VERTEX
8
Layer 1
10
66.518283
20
17.661018
70
0
0
VERTEX
8
Layer 1
10
66.237296
20
17.727164
70
0
0
VERTEX
8
Layer 1
10
65.989117
20
17.843051
70
0
0
VERTEX
8
Layer 1
10
65.741203
20
17.809714
70
0
0
VERTEX
8
Layer 1
10
65.741203
20
17.809714
70
0
0
SEQEND
8
Layer 1
0
POLYLINE
8
Layer 1
62
7
70
1
10
0.000000
20
0.000000
66
1
0
VERTEX
8
Layer 1
10
66.105004
20
19.198775
70
0
0
VERTEX
8
Layer 1
10
66.088335
20
19.050079
70
0
0
VERTEX
8
Layer 1
10
66.088335
20
18.835238
70
0
0
VERTEX
8
Layer 1
10
66.088335
20
18.636800
70
0
0
VERTEX
8
Layer 1
10
66.105004
20
18.487840
70
0
0
VERTEX
8
Layer 1
10
66.650574
20
18.801900
70
0
0
VERTEX
8
Layer 1
10
67.642761
20
19.529503
70
0
0
VERTEX
8
Layer 1
10
68.932603
20
20.538358
70
0
0
VERTEX
8
Layer 1
10
70.321663
20
21.728982
70
0
0
VERTEX
8
Layer 1
10
71.661247
20
22.969082
70
0
0
VERTEX
8
Layer 1
10
72.769056
20
24.143302
70
0
0
VERTEX
8
Layer 1
10
73.463587
20
25.102415
70
0
0
VERTEX
8
Layer 1
10
73.612547
20
25.763873
70
0
0
VERTEX
8
Layer 1
10
72.074526
20
25.664654
70
0
0
VERTEX
8
Layer 1
10
70.503697
20
25.119084
70
0
0
VERTEX
8
Layer 1
10
69.081563
20
24.275593
70
0
0
VERTEX
8
Layer 1
10
67.973489
20
23.365957
70
0
0
VERTEX
8
Layer 1
10
67.642761
20
22.605545
70
0
0
VERTEX
8
Layer 1
10
67.130263
20
21.447730
70
0
0
VERTEX
8
Layer 1
10
66.617501
20
20.290444
70
0
0
VERTEX
8
Layer 1
10
66.286773
20
19.546172
70
0
0
VERTEX
8
Layer 1
10
66.204223
20
19.364404
70
0
0
VERTEX
8
Layer 1
10
66.105004
20
19.198775
70
0
0
VERTEX
8
Layer 1
10
66.105004
20
19.198775
70
0
0
SEQEND
8
Layer 1
0
POLYLINE
8
Layer 1
62
7
70
1
10
0.000000
20
0.000000
66
1
0
VERTEX
8
Layer 1
10
76.010198
20
11.641755
70
0
0
VERTEX
8
Layer 1
10
75.898643
20
12.150217
70
0
0
VERTEX
8
Layer 1
10
75.960721
20
12.683683
70
0
0
VERTEX
8
Layer 1
10
76.440145
20
13.824565
70
0
0
VERTEX
8
Layer 1
10
77.217490
20
15.081334
70
0
0
VERTEX
8
Layer 1
10
78.060716
20
16.404249
70
0
0
VERTEX
8
Layer 1
10
78.722174
20
17.826383
70
0
0
VERTEX
8
Layer 1
10
78.986757
20
19.298258
70
0
0
VERTEX
8
Layer 1
10
78.689101
20
19.794086
70
0
0
VERTEX
8
Layer 1
10
78.143531
20
20.621173
70
0
0
VERTEX
8
Layer 1
10
77.465404
20
21.646167
70
0
0
VERTEX
8
Layer 1
10
76.754470
20
22.704499
70
0
0
VERTEX
8
Layer 1
10
76.142489
20
23.696686
70
0
0
VERTEX
8
Layer 1
10
75.745615
20
24.490435
70
0
0
VERTEX
8
Layer 1
10
75.663065
20
24.920647
70
0
0
VERTEX
8
Layer 1
10
76.010198
20
24.903978
70
0
0
VERTEX
8
Layer 1
10
76.589106
20
24.209448
70
0
0
VERTEX
8
Layer 1
10
77.300040
20
23.151116
70
0
0
VERTEX
8
Layer 1
10
78.060716
20
21.944088
70
0
0
VERTEX
8
Layer 1
10
78.788319
20
20.836014
70
0
0
VERTEX
8
Layer 1
10
79.367227
20
20.058669
70
0
0
VERTEX
8
Layer 1
10
79.731029
20
19.860232
70
0
0
VERTEX
8
Layer 1
10
80.210453
20
20.902160
70
0
0
VERTEX
8
Layer 1
10
80.921652
20
22.473254
70
0
0
VERTEX
8
Layer 1
10
81.698732
20
24.176375
70
0
0
VERTEX
8
Layer 1
10
82.459409
20
25.631581
70
0
0
VERTEX
8
Layer 1
10
83.087793
20
26.425330
70
0
0
VERTEX
8
Layer 1
10
83.323570
20
26.479107
70
0
0
VERTEX
8
Layer 1
10
83.468264
20
26.210224
70
0
0
VERTEX
8
Layer 1
10
83.319303
20
25.333925
70
0
0
VERTEX
8
Layer 1
10
82.707587
20
23.845646
70
0
0
VERTEX
8
Layer 1
10
81.764878
20
21.910750
70
0
0
VERTEX
8
Layer 1
10
80.640400
20
19.711537
70
0
0
VERTEX
8
Layer 1
10
79.466446
20
17.412839
70
0
0
VERTEX
8
Layer 1
10
78.375041
20
15.213625
70
0
0
VERTEX
8
Layer 1
10
77.482073
20
13.295399
70
0
0
VERTEX
8
Layer 1
10
76.936238
20
11.823788
70
0
0
VERTEX
8
Layer 1
10
76.770874
20
11.509464
70
0
0
VERTEX
8
Layer 1
10
76.539364
20
11.277953
70
0
0
VERTEX
8
Layer 1
10
76.258377
20
11.294622
70
0
0
VERTEX
8
Layer 1
10
76.010198
20
11.641755
70
0
0
VERTEX
8
Layer 1
10
76.010198
20
11.641755
70
0
0
SEQEND
8
Layer 1
0
POLYLINE
8
Layer 1
62
7
70
0
10
0.000000
20
0.000000
66
1
0
VERTEX
8
Layer 1
10
19.050505
20
14.287585
70
0
0
VERTEX
8
Layer 1
10
17.745408
20
14.207583
70
0
0
VERTEX
8
Layer 1
10
16.490308
20
13.973919
70
0
0
VERTEX
8
Layer 1
10
15.302603
20
13.596104
70
0
0
VERTEX
8
Layer 1
10
14.199689
20
13.083648
70
0
0
VERTEX
8
Layer 1
10
13.198963
20
12.446062
70
0
0
VERTEX
8
Layer 1
10
12.317824
20
11.692857
70
0
0
VERTEX
8
Layer 1
10
11.573668
20
10.833545
70
0
0
VERTEX
8
Layer 1
10
10.983892
20
9.877635
70
0
0
VERTEX
8
Layer 1
10
10.574790
20
8.860496
70
0
0
VERTEX
8
Layer 1
10
10.358334
20
7.822344
70
0
0
VERTEX
8
Layer 1
10
10.330443
20
6.779972
70
0
0
VERTEX
8
Layer 1
10
10.487034
20
5.750169
70
0
0
VERTEX
8
Layer 1
10
10.824027
20
4.749726
70
0
0
VERTEX
8
Layer 1
10
11.337337
20
3.795432
70
0
0
VERTEX
8
Layer 1
10
12.022885
20
2.904079
70
0
0
VERTEX
8
Layer 1
10
12.876587
20
2.092456
70
0
0
VERTEX
8
Layer 1
10
13.868570
20
1.393973
70
0
0
VERTEX
8
Layer 1
10
14.958002
20
0.833070
70
0
0
VERTEX
8
Layer 1
10
16.124361
20
0.413089
70
0
0
VERTEX
8
Layer 1
10
17.347125
20
0.137368
70
0
0
VERTEX
8
Layer 1
10
18.605773
20
0.009248
70
0
0
VERTEX
8
Layer 1
10
19.879783
20
0.032068
70
0
0
VERTEX
8
Layer 1
10
21.148635
20
0.209168
70
0
0
VERTEX
8
Layer 1
10
22.391806
20
0.543888
70
0
0
VERTEX
8
Layer 1
10
23.560139
20
1.026432
70
0
0
VERTEX
8
Layer 1
10
24.610410
20
1.635287
70
0
0
VERTEX
8
Layer 1
10
25.530993
20
2.356219
70
0
0
VERTEX
8
Layer 1
10
26.310265
20
3.174994
70
0
0
VERTEX
8
Layer 1
10
26.936600
20
4.077378
70
0
0
VERTEX
8
Layer 1
10
27.398375
20
5.049138
70
0
0
VERTEX
8
Layer 1
10
27.683964
20
6.076038
70
0
0
VERTEX
8
Layer 1
10
27.781744
20
7.143844
70
0
0
VERTEX
8
Layer 1
10
27.612426
20
8.544027
70
0
0
VERTEX
8
Layer 1
10
27.117118
20
9.877635
70
0
0
VERTEX
8
Layer 1
10
26.314793
20
11.107195
70
0
0
VERTEX
8
Layer 1
10
25.224423
20
12.195232
70
0
0
VERTEX
8
Layer 1
10
23.894601
20
13.087353
70
0
0
VERTEX
8
Layer 1
10
22.391806
20
13.743800
70
0
0
VERTEX
8
Layer 1
10
20.761840
20
14.149052
70
0
0
VERTEX
8
Layer 1
10
19.050505
20
14.287585
70
0
0
VERTEX
8
Layer 1
10
19.050505
20
14.287585
70
0
0
SEQEND
8
Layer 1
0
POLYLINE
8
Layer 1
62
7
70
0
10
0.000000
20
0.000000
66
1
0
VERTEX
8
Layer 1
10
79.507721
20
64.293772
70
0
0
VERTEX
8
Layer 1
10
78.925858
20
64.212451
70
0
0
VERTEX
8
Layer 1
10
78.405262
20
63.981640
70
0
0
VERTEX
8
Layer 1
10
77.977566
20
63.621065
70
0
0
VERTEX
8
Layer 1
10
77.674400
20
63.150452
70
0
0
VERTEX
8
Layer 1
10
77.532227
20
62.617598
70
0
0
VERTEX
8
Layer 1
10
77.561477
20
62.080368
70
0
0
VERTEX
8
Layer 1
10
77.754728
20
61.573584
70
0
0
VERTEX
8
Layer 1
10
78.104557
20
61.132072
70
0
0
VERTEX
8
Layer 1
10
78.577606
20
60.805564
70
0
0
VERTEX
8
Layer 1
10
79.120589
20
60.625197
70
0
0
VERTEX
8
Layer 1
10
79.696193
20
60.597897
70
0
0
VERTEX
8
Layer 1
10
80.267107
20
60.730591
70
0
0
VERTEX
8
Layer 1
10
80.771335
20
61.013546
70
0
0
VERTEX
8
Layer 1
10
81.157666
20
61.412730
70
0
0
VERTEX
8
Layer 1
10
81.404964
20
61.898619
70
0
0
VERTEX
8
Layer 1
10
81.492093
20
62.441691
70
0
0
VERTEX
8
Layer 1
10
81.336151
20
63.162605
70
0
0
VERTEX
8
Layer 1
10
80.910884
20
63.751310
70
0
0
VERTEX
8
Layer 1
10
80.280128
20
64.148226
70
0
0
VERTEX
8
Layer 1
10
79.507721
20
64.293772
70
0
0
VERTEX
8
Layer 1
10
79.507721
20
64.293772
70
0
0
SEQEND
8
Layer 1
0
POLYLINE
8
Layer 1
62
7
70
1
10
0.000000
20
0.000000
66
1
0
VERTEX
8
Layer 1
10
40.566395
20
55.827116
70
0
0
VERTEX
8
Layer 1
10
40.566395
20
58.069880
70
0
0
VERTEX
8
Layer 1
10
41.382898
20
58.199050
70
0
0
VERTEX
8
Layer 1
10
41.382898
20
61.780234
70
0
0
VERTEX
8
Layer 1
10
40.711122
20
61.563196
70
0
0
VERTEX
8
Layer 1
10
40.266622
20
61.118776
70
0
0
VERTEX
8
Layer 1
10
39.398525
20
61.118776
70
0
0
VERTEX
8
Layer 1
10
39.398525
20
63.764606
70
0
0
VERTEX
8
Layer 1
10
46.674558
20
63.764606
70
0
0
VERTEX
8
Layer 1
10
46.674558
20
61.118776
70
0
0
VERTEX
8
Layer 1
10
45.806461
20
61.118776
70
0
0
VERTEX
8
Layer 1
10
45.361962
20
61.563196
70
0
0
VERTEX
8
Layer 1
10
44.690185
20
61.780234
70
0
0
VERTEX
8
Layer 1
10
44.690185
20
58.199050
70
0
0
VERTEX
8
Layer 1
10
45.506689
20
58.069880
70
0
0
VERTEX
8
Layer 1
10
45.506689
20
55.827116
70
0
0
VERTEX
8
Layer 1
10
40.566395
20
55.827116
70
0
0
VERTEX
8
Layer 1
10
40.566395
20
55.827116
70
0
0
SEQEND
8
Layer 1
0
POLYLINE
8
Layer 1
62
7
70
1
10
0.000000
20
0.000000
66
1
0
VERTEX
8
Layer 1
10
47.051853
20
55.827116
70
0
0
VERTEX
8
Layer 1
10
47.051853
20
58.431618
70
0
0
VERTEX
8
Layer 1
10
47.687382
20
58.560788
70
0
0
VERTEX
8
Layer 1
10
49.211909
20
63.764606
70
0
0
VERTEX
8
Layer 1
10
53.480426
20
63.764606
70
0
0
VERTEX
8
Layer 1
10
55.009981
20
58.560788
70
0
0
VERTEX
8
Layer 1
10
55.645509
20
58.431618
70
0
0
VERTEX
8
Layer 1
10
55.645509
20
55.827116
70
0
0
VERTEX
8
Layer 1
10
52.705198
20
55.827116
70
0
0
VERTEX
8
Layer 1
10
52.426328
20
57.160376
70
0
0
VERTEX
8
Layer 1
10
50.266008
20
57.160376
70
0
0
VERTEX
8
Layer 1
10
49.992164
20
55.827116
70
0
0
VERTEX
8
Layer 1
10
47.051853
20
55.827116
70
0
0
VERTEX
8
Layer 1
10
47.051853
20
55.827116
70
0
0
SEQEND
8
Layer 1
0
POLYLINE
8
Layer 1
62
7
70
1
10
0.000000
20
0.000000
66
1
0
VERTEX
8
Layer 1
10
50.710507
20
58.932871
70
0
0
VERTEX
8
Layer 1
10
51.981828
20
58.932871
70
0
0
VERTEX
8
Layer 1
10
51.346035
20
61.924934
70
0
0
VERTEX
8
Layer 1
10
50.710507
20
58.932871
70
0
0
VERTEX
8
Layer 1
10
50.710507
20
58.932871
70
0
0
SEQEND
8
Layer 1
0
POLYLINE
8
Layer 1
62
7
70
1
10
0.000000
20
0.000000
66
1
0
VERTEX
8
Layer 1
10
56.338187
20
55.827116
70
0
0
VERTEX
8
Layer 1
10
56.338187
20
58.069880
70
0
0
VERTEX
8
Layer 1
10
57.273488
20
58.193890
70
0
0
VERTEX
8
Layer 1
10
59.180338
20
59.899207
70
0
0
VERTEX
8
Layer 1
10
57.325082
20
61.397832
70
0
0
VERTEX
8
Layer 1
10
56.229708
20
61.521842
70
0
0
VERTEX
8
Layer 1
10
56.229708
20
63.764606
70
0
0
VERTEX
8
Layer 1
10
61.438554
20
63.764606
70
0
0
VERTEX
8
Layer 1
10
61.438554
20
61.521842
70
0
0
VERTEX
8
Layer 1
10
60.870230
20
61.397832
70
0
0
VERTEX
8
Layer 1
10
62.208490
20
60.426309
70
0
0
VERTEX
8
Layer 1
10
63.102516
20
61.397832
70
0
0
VERTEX
8
Layer 1
10
62.136259
20
61.521842
70
0
0
VERTEX
8
Layer 1
10
62.136259
20
63.764606
70
0
0
VERTEX
8
Layer 1
10
66.270369
20
63.764606
70
0
0
VERTEX
8
Layer 1
10
66.270369
20
61.521842
70
0
0
VERTEX
8
Layer 1
10
65.180022
20
61.397832
70
0
0
VERTEX
8
Layer 1
10
63.634857
20
59.795861
70
0
0
VERTEX
8
Layer 1
10
65.593301
20
58.193890
70
0
0
VERTEX
8
Layer 1
10
66.533893
20
58.069880
70
0
0
VERTEX
8
Layer 1
10
66.533893
20
55.827116
70
0
0
VERTEX
8
Layer 1
10
61.138781
20
55.827116
70
0
0
VERTEX
8
Layer 1
10
61.138781
20
58.069880
70
0
0
VERTEX
8
Layer 1
10
61.707370
20
58.193890
70
0
0
VERTEX
8
Layer 1
10
60.503253
20
59.113740
70
0
0
VERTEX
8
Layer 1
10
59.505775
20
58.193890
70
0
0
VERTEX
8
Layer 1
10
60.487643
20
58.069880
70
0
0
VERTEX
8
Layer 1
10
60.487643
20
55.827116
70
0
0
VERTEX
8
Layer 1
10
56.338187
20
55.827116
70
0
0
VERTEX
8
Layer 1
10
56.338187
20
55.827116
70
0
0
SEQEND
8
Layer 1
0
POLYLINE
8
Layer 1
62
7
70
1
10
0.000000
20
0.000000
66
1
0
VERTEX
8
Layer 1
10
66.942145
20
55.827116
70
0
0
VERTEX
8
Layer 1
10
66.942145
20
58.069880
70
0
0
VERTEX
8
Layer 1
10
67.758648
20
58.199050
70
0
0
VERTEX
8
Layer 1
10
67.758648
20
61.392672
70
0
0
VERTEX
8
Layer 1
10
66.942145
20
61.521842
70
0
0
VERTEX
8
Layer 1
10
66.942145
20
63.764606
70
0
0
VERTEX
8
Layer 1
10
71.882439
20
63.764606
70
0
0
VERTEX
8
Layer 1
10
71.882439
20
61.521842
70
0
0
VERTEX
8
Layer 1
10
71.065935
20
61.392672
70
0
0
VERTEX
8
Layer 1
10
71.065935
20
58.199050
70
0
0
VERTEX
8
Layer 1
10
71.882439
20
58.069880
70
0
0
VERTEX
8
Layer 1
10
71.882439
20
55.827116
70
0
0
VERTEX
8
Layer 1
10
66.942145
20
55.827116
70
0
0
VERTEX
8
Layer 1
10
66.942145
20
55.827116
70
0
0
SEQEND
8
Layer 1
 0 
ENDSEC
 0 
EOF